<svg width="20" height="20" viewBox="0 0 20 20" fill="none" xmlns="http://www.w3.org/2000/svg">
<g id="icon/action/drag_indicator_24px">
<path id="icon/action/drag_indicator_24px_2" fill-rule="evenodd" clip-rule="evenodd" d="M7.50016 3.33301C6.5835 3.33301 5.8335 4.08301 5.8335 4.99967C5.8335 5.91634 6.5835 6.66634 7.50016 6.66634C8.41683 6.66634 9.16683 5.91634 9.16683 4.99967C9.16683 4.08301 8.41683 3.33301 7.50016 3.33301ZM5.8335 9.99967C5.8335 9.08301 6.5835 8.33301 7.50016 8.33301C8.41683 8.33301 9.16683 9.08301 9.16683 9.99967C9.16683 10.9163 8.41683 11.6663 7.50016 11.6663C6.5835 11.6663 5.8335 10.9163 5.8335 9.99967ZM7.50016 16.6663C8.41683 16.6663 9.16683 15.9163 9.16683 14.9997C9.16683 14.083 8.41683 13.333 7.50016 13.333C6.5835 13.333 5.8335 14.083 5.8335 14.9997C5.8335 15.9163 6.5835 16.6663 7.50016 16.6663ZM14.1668 4.99967C14.1668 5.91634 13.4168 6.66634 12.5002 6.66634C11.5835 6.66634 10.8335 5.91634 10.8335 4.99967C10.8335 4.08301 11.5835 3.33301 12.5002 3.33301C13.4168 3.33301 14.1668 4.08301 14.1668 4.99967ZM12.5002 8.33301C11.5835 8.33301 10.8335 9.08301 10.8335 9.99967C10.8335 10.9163 11.5835 11.6663 12.5002 11.6663C13.4168 11.6663 14.1668 10.9163 14.1668 9.99967C14.1668 9.08301 13.4168 8.33301 12.5002 8.33301ZM10.8335 14.9997C10.8335 14.083 11.5835 13.333 12.5002 13.333C13.4168 13.333 14.1668 14.083 14.1668 14.9997C14.1668 15.9163 13.4168 16.6663 12.5002 16.6663C11.5835 16.6663 10.8335 15.9163 10.8335 14.9997Z" fill="black" fill-opacity="0.54"/>
</g>
</svg>
