<svg width="20" height="20" viewBox="0 0 20 20" fill="none" xmlns="http://www.w3.org/2000/svg">
<g clip-path="url(#clip0)">
<path d="M19.0472 0.952398C17.7767 -0.317466 15.71 -0.317466 14.4395 0.952398L1.38534 14.0065C1.37919 14.0127 1.37557 14.0203 1.37014 14.0268C1.36253 14.0355 1.35602 14.0449 1.34914 14.0543C1.32995 14.0811 1.31511 14.1097 1.30389 14.1408C1.30063 14.1502 1.29593 14.1586 1.29339 14.168C1.29231 14.1716 1.29014 14.1752 1.28905 14.1788L0.00941176 19.5544C0.00361991 19.5786 0.00217195 19.6033 0.00144796 19.6275C0.00144796 19.6322 0 19.6366 0 19.6413C0.000361991 19.6825 0.00941176 19.7227 0.0235294 19.7614C0.0267873 19.7705 0.0304072 19.7785 0.0343891 19.7871C0.0521267 19.8259 0.0742081 19.8632 0.105339 19.8943C0.139729 19.9287 0.180271 19.9551 0.224072 19.9732C0.267873 19.9913 0.31457 20.0004 0.361267 20.0004C0.38914 20.0004 0.417376 19.9971 0.444887 19.9906L5.82045 18.711C5.83023 18.7088 5.83891 18.7033 5.84833 18.7001C5.86063 18.6961 5.87222 18.6914 5.88416 18.686C5.91023 18.674 5.93448 18.6592 5.95692 18.6414C5.96561 18.6346 5.97466 18.6295 5.98299 18.6219C5.98588 18.619 5.9895 18.6176 5.9924 18.6147L19.0469 5.56018C20.3175 4.28959 20.3175 2.22262 19.0472 0.952398ZM18.5354 1.46425C19.436 2.36525 19.5128 3.77991 18.7707 4.77176L15.2279 1.22896C16.2201 0.486878 17.6348 0.56362 18.5354 1.46425ZM16.7435 6.83982L13.1598 3.25611L13.6717 2.74425L17.2554 6.32796L16.7435 6.83982ZM1.79584 18.2038C1.6543 18.0623 1.42552 18.0623 1.28398 18.2038L1.00995 18.4778L1.93448 14.5944L3.5352 14.4167L3.32923 16.2708C3.32778 16.2845 3.33285 16.2972 3.33285 16.3106C3.33285 16.3243 3.32778 16.3367 3.32923 16.3504C3.33068 16.3624 3.33683 16.3721 3.33937 16.3837C3.34371 16.4047 3.34986 16.4239 3.35747 16.4434C3.36688 16.467 3.3781 16.4883 3.39186 16.509C3.40308 16.5256 3.4143 16.5405 3.42805 16.5549C3.44543 16.5734 3.46425 16.589 3.48489 16.6034C3.50118 16.6147 3.51674 16.6252 3.53484 16.6338C3.55873 16.6451 3.58371 16.6516 3.60977 16.6577C3.62353 16.661 3.63475 16.6686 3.64887 16.6704C3.6619 16.6719 3.67493 16.6726 3.68833 16.6726H3.68869H3.68905H3.68941H3.68977C3.70281 16.6726 3.7162 16.6719 3.72923 16.6704L5.58335 16.4644L5.40561 18.0652L1.52181 18.9897L1.79584 18.7157C1.93701 18.5745 1.93701 18.3453 1.79584 18.2038ZM6.33882 16.2205L14.4395 8.11946C14.581 7.97792 14.581 7.74914 14.4395 7.6076C14.2979 7.46606 14.0691 7.46606 13.9276 7.6076L5.82697 15.7086L4.09919 15.9005L4.29104 14.1727L12.3924 6.07204C12.5339 5.9305 12.5339 5.70172 12.3924 5.56018C12.2509 5.41864 12.0221 5.41864 11.8805 5.56018L3.77919 13.6608L2.62697 13.789L12.648 3.76796L16.2317 7.35167L6.21068 17.3727L6.33882 16.2205ZM17.7672 5.81611L14.1835 2.2324L14.6957 1.72018L18.2795 5.30389L17.7672 5.81611Z" fill="#28950F"/>
</g>
<defs>
<clipPath id="clip0">
<rect width="20" height="20" fill="white"/>
</clipPath>
</defs>
</svg>
