<svg width="302" height="246" viewBox="0 0 302 246" fill="none" xmlns="http://www.w3.org/2000/svg">
<path d="M48.9004 41.6577L45.3068 40.3477L46.1513 38.283L49.679 40.0111L49.7441 35.915L52.0348 36.0834L51.4962 40.227L55.1428 39.0498L55.6756 41.2392L51.8595 42.0045L54.0861 45.2938L52.131 46.4778L50.254 42.9087L47.9088 46.0499L46.143 44.6511L48.9004 41.6577Z" fill="#219653"/>
<path d="M39.2017 76.9886L34.3628 76.6328L38.3984 73.1429L36.8832 71.3719L31.0788 76.3914L28.7579 76.2208L28.9283 73.8959L34.7327 68.8764L33.2049 67.1162L29.1693 70.6061L29.5244 65.7587L27.2035 65.5881L26.8484 70.4355L23.3646 66.3928L21.5967 67.9107L26.6074 73.7252L26.4371 76.0501L24.1163 75.8795L19.1055 70.065L17.3484 71.5954L20.8323 75.6381L15.9933 75.2823L15.823 77.6072L20.6619 77.963L16.6263 81.4529L18.1415 83.2239L23.9459 78.2044L26.2668 78.375L26.0964 80.6999L20.292 85.7194L21.8198 87.4796L25.8554 83.9897L25.5003 88.8371L27.8212 89.0077L28.1763 84.1603L31.6601 88.203L33.428 86.6851L28.4173 80.8706L28.5876 78.5457L30.9084 78.7163L35.9192 84.5308L37.6763 83.0004L34.1924 78.9577L39.0314 79.3135L39.2017 76.9886Z" fill="#56CCF2"/>
<path d="M22.9848 129.111L16.0222 128.599L15.5113 135.574L13.1904 135.403L13.7014 128.429L6.73887 127.917L6.9092 125.592L13.8717 126.104L14.3827 119.129L16.7035 119.3L16.1926 126.274L23.1551 126.786L22.9848 129.111Z" fill="#F2994A"/>
<path d="M96.716 3.23817L94.9833 1.2275L87.0258 8.10886L80.1564 0.137472L78.1493 1.8732L85.0186 9.84459L77.0611 16.726L78.7938 18.7366L86.7513 11.8553L93.6207 19.8267L95.6279 18.0909L88.7585 10.1195L96.716 3.23817Z" fill="#2F80ED"/>
<path d="M259.947 202.427L263.621 203.488L262.92 205.605L259.282 204.123L259.497 208.214L257.2 208.203L257.454 204.032L253.897 205.456L253.216 203.309L256.971 202.284L254.525 199.155L256.394 197.84L258.511 201.272L260.636 197.977L262.493 199.252L259.947 202.427Z" fill="#219653"/>
<path d="M267.211 166.515L272.062 166.538L268.274 170.296L269.907 171.959L275.355 166.554L277.682 166.565L277.671 168.896L272.223 174.302L273.867 175.953L277.655 172.195L277.632 177.055L279.959 177.067L279.982 172.206L283.734 176.001L285.394 174.365L279.998 168.908L280.009 166.577L282.336 166.588L287.732 172.046L289.381 170.398L285.629 166.604L290.481 166.627L290.492 164.296L285.64 164.273L289.428 160.514L287.796 158.851L282.348 164.257L280.021 164.245L280.032 161.914L285.48 156.509L283.836 154.858L280.048 158.616L280.071 153.755L277.744 153.744L277.721 158.605L273.969 154.81L272.309 156.445L277.705 161.903L277.694 164.234L275.366 164.223L269.971 158.765L268.322 160.413L272.074 164.207L267.222 164.184L267.211 166.515Z" fill="#56CCF2"/>
<path d="M279.831 113.402L286.812 113.435L286.846 106.442L289.173 106.453L289.14 113.447L296.121 113.48L296.11 115.811L289.128 115.778L289.095 122.771L286.768 122.76L286.801 115.766L279.82 115.733L279.831 113.402Z" fill="#F2994A"/>
<path d="M214.866 244.032L216.732 245.919L224.201 238.509L231.598 245.991L233.482 244.122L226.085 236.64L233.554 229.229L231.688 227.342L224.219 234.752L216.821 227.27L214.937 229.139L222.335 236.622L214.866 244.032Z" fill="#2F80ED"/>
<ellipse cx="151.891" cy="123.07" rx="110.924" ry="111.118" fill="#E2E6E9"/>
<g clip-path="url(#clip0)">
<path d="M179.577 80.0529C179.369 79.1407 178.863 78.2766 178.065 77.5788C177.269 76.888 176.288 76.4676 175.272 76.3146L158.963 73.1543L163.681 76.292L156.231 99.6843L152.036 82.3056L147.839 99.6843L140.394 76.292L145.111 73.1543L128.799 76.3146C127.786 76.4684 126.807 76.8888 126.004 77.5788C125.206 78.2758 124.704 79.1399 124.496 80.0529L119.661 101.333L128.783 104.504C131.813 107.658 140.287 109.978 150.456 110.197H152.036H153.618C163.783 109.978 172.258 107.658 175.289 104.504L184.417 101.333L179.577 80.0529Z" fill="#F9AA33"/>
<path d="M152.036 75.5273L148.275 76.8771L152.036 82.3055L155.799 76.8771L152.036 75.5273Z" fill="#28950F"/>
<path d="M165.995 54.575C165.995 44.9171 162.028 37.3486 152.035 37.3486C142.041 37.3486 138.074 44.9171 138.074 54.575C137.033 55.1197 136.347 56.4027 137.373 59.1495C137.89 60.5303 138.803 61.6858 139.577 62.2896C142.424 69.3895 148.024 74.8755 152.036 74.8755C156.048 74.8755 161.648 69.3895 164.494 62.2888C165.272 61.6858 166.181 60.5303 166.701 59.1488C167.725 56.4027 167.041 55.1197 165.995 54.575Z" fill="#FCE3B0"/>
<path d="M207.823 131.784C206.985 128.532 203.966 126.424 200.739 126.626L197.187 118.786H153.349V113.125H150.723V118.786H106.882L103.334 126.626C100.105 126.423 97.0874 128.532 96.2481 131.784C95.2971 135.471 97.5117 139.234 101.192 140.187C104.877 141.139 108.634 138.92 109.584 135.229C110.423 131.975 108.796 128.67 105.874 127.281L108.916 121.412H150.723V127.072C147.549 127.688 145.149 130.483 145.149 133.845C145.149 137.655 148.231 140.742 152.035 140.742C155.84 140.742 158.92 137.655 158.92 133.845C158.92 130.483 156.523 127.688 153.348 127.075V121.412H195.156L198.196 127.281C195.275 128.67 193.65 131.976 194.487 135.229C195.436 138.92 199.192 141.138 202.874 140.187C206.558 139.234 208.773 135.473 207.823 131.784ZM107.046 134.575C106.458 136.855 104.127 138.23 101.853 137.642C99.5751 137.053 98.2036 134.718 98.7893 132.439C99.3765 130.159 101.706 128.784 103.983 129.372C106.256 129.96 107.63 132.295 107.046 134.575ZM156.299 133.845C156.299 136.199 154.383 138.113 152.035 138.113C149.683 138.113 147.771 136.199 147.771 133.845C147.771 131.491 149.683 129.574 152.035 129.574C154.383 129.574 156.299 131.491 156.299 133.845ZM202.22 137.642C199.944 138.23 197.613 136.854 197.029 134.575C196.439 132.298 197.813 129.961 200.091 129.372C202.367 128.784 204.697 130.16 205.281 132.439C205.871 134.722 204.499 137.053 202.22 137.642Z" fill="#BF0000"/>
<path d="M114.361 172.587C114.229 171.98 113.89 171.405 113.358 170.94C112.826 170.477 112.175 170.2 111.499 170.097L99.3299 167.731C101.237 166.245 103.137 163.713 104.322 160.759C104.837 160.354 105.446 159.586 105.79 158.669C106.474 156.84 106.016 155.987 105.32 155.624C105.32 149.193 102.679 144.15 96.0263 144.15C89.3724 144.15 86.7311 149.192 86.7311 155.624C86.0361 155.987 85.5792 156.84 86.2618 158.669C86.6047 159.586 87.2151 160.355 87.7318 160.759C88.9124 163.713 90.812 166.245 92.7218 167.731L80.5527 170.097C79.8802 170.2 79.227 170.477 78.691 170.94C78.1612 171.406 77.8261 171.98 77.6881 172.587L74.4666 186.76L80.5403 188.87C82.5587 190.969 88.2003 192.514 94.9713 192.658H96.0263H97.0781C103.848 192.514 109.493 190.969 111.51 188.87L117.584 186.76L114.361 172.587Z" fill="#3F51B5"/>
<path d="M226.386 172.587C226.247 171.98 225.91 171.405 225.381 170.94C224.847 170.477 224.193 170.2 223.521 170.097L211.351 167.732C213.262 166.245 215.16 163.713 216.343 160.759C216.861 160.354 217.467 159.586 217.813 158.669C218.497 156.84 218.038 155.987 217.343 155.624C217.343 149.193 214.702 144.15 208.05 144.15C201.394 144.15 198.756 149.192 198.756 155.624C198.061 155.987 197.602 156.84 198.286 158.669C198.629 159.586 199.239 160.355 199.754 160.759C200.941 163.713 202.84 166.245 204.748 167.732L192.578 170.097C191.902 170.2 191.252 170.477 190.718 170.94C190.189 171.406 189.849 171.98 189.713 172.587L186.491 186.759L192.568 188.87C194.583 190.968 200.228 192.513 206.999 192.658H208.05H209.102C215.871 192.513 221.516 190.968 223.533 188.87L229.608 186.759L226.386 172.587Z" fill="#3F51B5"/>
<path d="M170.375 172.587C170.236 171.98 169.902 171.405 169.37 170.94C168.836 170.477 168.185 170.2 167.506 170.097L155.339 167.732C157.253 166.245 159.148 163.713 160.331 160.759C160.849 160.354 161.455 159.586 161.798 158.669C162.485 156.84 162.029 155.987 161.33 155.624C161.33 149.193 158.689 144.15 152.036 144.15C145.381 144.15 142.741 149.192 142.741 155.624C142.046 155.987 141.589 156.84 142.272 158.669C142.618 159.586 143.226 160.355 143.739 160.759C144.924 163.713 146.823 166.245 148.733 167.732L136.563 170.097C135.888 170.2 135.236 170.477 134.702 170.94C134.173 171.406 133.837 171.98 133.697 172.587L130.477 186.759L136.553 188.87C138.57 190.968 144.213 192.513 150.983 192.658H152.036H153.091C159.86 192.513 165.505 190.968 167.521 188.87L173.598 186.759L170.375 172.587Z" fill="#3F51B5"/>
</g>
<defs>
<clipPath id="clip0">
<rect width="155.139" height="155.41" fill="white" transform="translate(74.4666 37.2988)"/>
</clipPath>
</defs>
</svg>
