<svg width="319" height="319" viewBox="0 0 319 319" fill="none" xmlns="http://www.w3.org/2000/svg">
<path opacity="0.05" d="M159.5 319C247.589 319 319 247.589 319 159.5C319 71.4106 247.589 0 159.5 0C71.4106 0 0 71.4106 0 159.5C0 247.589 71.4106 319 159.5 319Z" fill="#A9A9B0"/>
<path d="M217.213 171.801L192.104 149.126H126.893L101.784 171.801L98.3262 167.947L124.908 143.939H194.089L220.671 167.947L217.213 171.801Z" fill="#7E7D7D"/>
<path fill-rule="evenodd" clip-rule="evenodd" d="M105.225 212.666H213.774C218.05 212.666 221.527 209.177 221.527 204.886V167.28H180.175V169.874C180.175 176.31 174.959 181.545 168.545 181.545H150.454C144.04 181.545 138.824 176.31 138.824 169.874V167.28H97.4717V204.886C97.4717 209.177 100.949 212.666 105.225 212.666ZM102.641 204.886V172.467H133.852C135.099 180.537 142.07 186.731 150.454 186.731H168.545C176.929 186.731 183.9 180.537 185.147 172.467H216.358V204.886C216.358 206.316 215.199 207.479 213.774 207.479H105.225C103.8 207.479 102.641 206.316 102.641 204.886Z" fill="#7E7D7D"/>
<rect x="134.55" y="108.858" width="16.8491" height="5.18723" transform="rotate(57.5288 134.55 108.858)" fill="#7E7D7D"/>
<rect x="185.765" y="108.834" width="5.16894" height="16.9069" transform="rotate(32.4664 185.765 108.834)" fill="#7E7D7D"/>
<rect x="156.916" y="106.333" width="5.16898" height="16.8577" fill="#7E7D7D"/>
</svg>
