<svg width="143" height="178" viewBox="0 0 143 178" fill="none" xmlns="http://www.w3.org/2000/svg">
<circle cx="71.5" cy="71.5" r="71.5" fill="#E2E6E9"/>
<path d="M22.5948 61.5458L26.3736 62.1363L26.6321 59.9204L22.7089 59.7278L24.6312 56.1103L22.5446 55.1503L21.0138 59.0383L18.3905 56.2447L16.8661 57.9039L19.8369 60.4188L16.2983 62.2221L17.4375 64.2038L20.8054 61.9867L21.3404 65.8705L23.5621 65.4995L22.5948 61.5458Z" fill="url(#paint0_linear)"/>
<path d="M35.5492 31.52L39.2963 32.2862L39.6579 30.0848L35.748 29.7093L37.8371 26.1855L35.7976 25.1291L34.087 28.9414L31.597 26.0284L29.9967 27.6146L32.8469 30.2654L29.228 31.9015L30.2734 33.9343L33.7411 31.8768L34.0942 35.7814L36.3308 35.5145L35.5492 31.52Z" fill="#F2C94C"/>
<path d="M72.3071 18.682L75.6426 20.5534L76.6577 18.5667L73.048 17.018L76.1114 14.2981L74.4906 12.6706L71.6999 15.7805L70.2157 12.2474L68.2082 13.2708L70.1154 16.6639L66.1701 17.1197L66.5466 19.3744L70.4762 18.4711L69.6231 22.2976L71.8347 22.7248L72.3071 18.682Z" fill="#F9AA33"/>
<path d="M107.381 30.3256L111.173 30.8207L111.376 28.5989L107.449 28.5053L109.279 24.8405L107.169 23.9334L105.737 27.8587L103.044 25.1322L101.562 26.8293L104.595 29.2685L101.103 31.1604L102.292 33.1128L105.603 30.8114L106.236 34.6805L108.447 34.2537L107.381 30.3256Z" fill="#F2C94C"/>
<path d="M118.963 59.9306L122.715 60.6733L123.063 58.4696L119.15 58.1187L121.217 54.5818L119.171 53.5383L117.485 57.3612L114.976 54.4638L113.386 56.0601L116.253 58.693L112.644 60.3517L113.702 62.378L117.157 60.2987L117.535 64.201L119.77 63.9201L118.963 59.9306Z" fill="url(#paint1_linear)"/>
<circle cx="71" cy="62" r="29.5" fill="#DDE6F3" stroke="#535355"/>
<path d="M41.5 61.5H100.5V122.561C100.254 121.826 99.9807 121.087 99.7116 120.514C99.5687 120.21 99.4165 119.93 99.2583 119.719C99.1794 119.613 99.0857 119.507 98.9756 119.423C98.8681 119.341 98.7055 119.25 98.5 119.25C98.2945 119.25 98.1319 119.341 98.0244 119.423C97.9143 119.507 97.8206 119.613 97.7417 119.719C97.5835 119.93 97.4313 120.21 97.2884 120.514C97.0001 121.128 96.7074 121.932 96.4477 122.718C96.2432 123.338 96.0559 123.957 95.9039 124.479C95.6719 123.944 95.3846 123.302 95.0758 122.659C94.6981 121.872 94.2815 121.069 93.8899 120.457C93.6953 120.153 93.4953 119.878 93.2982 119.672C93.1996 119.57 93.0895 119.471 92.9691 119.396C92.8518 119.323 92.6906 119.25 92.5 119.25C92.3094 119.25 92.1482 119.323 92.0309 119.396C91.9105 119.471 91.8004 119.57 91.7018 119.672C91.5047 119.878 91.3047 120.153 91.1101 120.457C90.7185 121.069 90.3019 121.872 89.9242 122.659C89.5665 123.404 89.2377 124.148 88.9903 124.725C88.7332 124.147 88.3925 123.402 88.0264 122.655C87.6412 121.869 87.2218 121.069 86.8383 120.46C86.6479 120.158 86.4555 119.885 86.271 119.682C86.1791 119.581 86.0764 119.483 85.9647 119.407C85.8594 119.335 85.6982 119.25 85.5 119.25C85.3052 119.25 85.1444 119.333 85.0399 119.4C84.9271 119.473 84.8202 119.568 84.722 119.667C84.5248 119.866 84.3128 120.136 84.0989 120.437C83.6684 121.044 83.186 121.842 82.7382 122.627C82.2888 123.416 81.8676 124.202 81.5592 124.792C81.5278 124.852 81.4975 124.91 81.4684 124.966C81.4301 124.902 81.3898 124.835 81.3477 124.765C80.9924 124.176 80.5087 123.39 79.9967 122.602C79.4862 121.817 78.9411 121.021 78.4639 120.417C78.2265 120.116 77.9952 119.849 77.7856 119.653C77.6812 119.556 77.5701 119.464 77.4561 119.394C77.3521 119.33 77.1914 119.25 77 119.25C76.8018 119.25 76.6406 119.335 76.5353 119.407C76.4236 119.483 76.3209 119.581 76.229 119.682C76.0445 119.885 75.8521 120.158 75.6617 120.46C75.2782 121.069 74.8588 121.869 74.4736 122.655C74.0869 123.444 73.7284 124.231 73.467 124.821C73.4547 124.848 73.4426 124.876 73.4307 124.903C73.4039 124.858 73.3762 124.812 73.3477 124.765C72.9924 124.176 72.5087 123.39 71.9967 122.602C71.4862 121.817 70.9411 121.021 70.4639 120.417C70.2265 120.116 69.9952 119.849 69.7856 119.653C69.6812 119.556 69.5701 119.464 69.4561 119.394C69.3521 119.33 69.1914 119.25 69 119.25C68.8018 119.25 68.6406 119.335 68.5353 119.407C68.4236 119.483 68.3209 119.581 68.229 119.682C68.0445 119.885 67.8521 120.158 67.6617 120.46C67.2782 121.069 66.8588 121.869 66.4736 122.655C66.0869 123.444 65.7284 124.231 65.467 124.821C65.4547 124.848 65.4426 124.876 65.4307 124.903C65.4039 124.858 65.3762 124.812 65.3477 124.765C64.9924 124.176 64.5087 123.39 63.9967 122.602C63.4862 121.817 62.9411 121.021 62.4639 120.417C62.2265 120.116 61.9952 119.849 61.7856 119.653C61.6812 119.556 61.5701 119.464 61.4561 119.394C61.3521 119.33 61.1914 119.25 61 119.25C60.8086 119.25 60.6479 119.33 60.5439 119.394C60.4299 119.464 60.3188 119.556 60.2144 119.653C60.0048 119.849 59.7735 120.116 59.5361 120.417C59.0589 121.021 58.5138 121.817 58.0033 122.602C57.4913 123.39 57.0076 124.176 56.6523 124.765C56.6102 124.835 56.5699 124.902 56.5316 124.966C56.5025 124.91 56.4722 124.852 56.4408 124.792C56.1324 124.202 55.7112 123.416 55.2618 122.627C54.814 121.842 54.3316 121.044 53.9011 120.437C53.6872 120.136 53.4752 119.866 53.278 119.667C53.1798 119.568 53.0729 119.473 52.9601 119.4C52.8556 119.333 52.6948 119.25 52.5 119.25C52.3086 119.25 52.1479 119.33 52.0439 119.394C51.9299 119.464 51.8188 119.556 51.7144 119.653C51.5048 119.849 51.2735 120.116 51.0361 120.417C50.5589 121.021 50.0138 121.817 49.5033 122.602C48.9913 123.39 48.5076 124.176 48.1523 124.765C48.1065 124.841 48.0629 124.913 48.0216 124.982C47.9873 124.919 47.9513 124.853 47.9137 124.784C47.5928 124.196 47.1568 123.41 46.6979 122.623C46.2403 121.839 45.7544 121.043 45.3345 120.441C45.1258 120.141 44.9238 119.875 44.7428 119.679C44.6531 119.582 44.5561 119.489 44.4555 119.416C44.3713 119.354 44.2083 119.25 44 119.25C43.7812 119.25 43.6178 119.363 43.5321 119.434C43.4343 119.514 43.3466 119.615 43.2701 119.715C43.1154 119.918 42.953 120.189 42.7915 120.49C42.4658 121.097 42.1059 121.895 41.7736 122.68C41.6801 122.901 41.5885 123.121 41.5 123.338V61.5Z" fill="#DDE6F3" stroke="#535355"/>
<path fill-rule="evenodd" clip-rule="evenodd" d="M101 126C101 126 100.552 124.279 100 122.643C99.5001 121.161 98.915 119.75 98.5 119.75C97.9176 119.75 97 122.53 96.4534 124.382C96.1804 125.307 96 126 96 126C96 126 95.7427 125.357 95.3602 124.483C94.5504 122.633 93.1792 119.75 92.5 119.75C91.798 119.75 90.3568 122.83 89.5602 124.666C89.222 125.445 89 126 89 126C89 126 88.769 125.45 88.4213 124.677C87.5963 122.843 86.1143 119.75 85.5 119.75C84.863 119.75 83.0266 123.076 82.0798 124.876C81.7288 125.543 81.5 126 81.5 126C81.5 126 81.2481 125.566 80.861 124.926C79.7795 123.14 77.6431 119.75 77 119.75C76.373 119.75 74.8422 122.972 74.0285 124.789C73.7089 125.503 73.5 126 73.5 126C73.5 126 73.2392 125.551 72.8406 124.893C71.7529 123.097 69.6391 119.75 69 119.75C68.373 119.75 66.8422 122.972 66.0285 124.789C65.7089 125.503 65.5 126 65.5 126C65.5 126 65.2392 125.551 64.8406 124.893C63.7529 123.097 61.6391 119.75 61 119.75C60.3569 119.75 58.2205 123.14 57.139 124.926C56.752 125.566 56.5 126 56.5 126C56.5 126 56.2712 125.543 55.9202 124.876C54.9734 123.076 53.137 119.75 52.5 119.75C51.8559 119.75 49.7138 123.15 48.6339 124.935C48.2497 125.57 48 126 48 126C48 126 47.7648 125.553 47.4065 124.899C46.4249 123.105 44.5197 119.75 44 119.75C43.6027 119.75 42.7092 121.711 42 123.436C41.4432 124.791 41 126 41 126V61H101V126ZM100 119.845V62.25H42V120.831C42.1356 120.545 42.2706 120.274 42.4016 120.03C42.571 119.714 42.7556 119.402 42.9441 119.155C43.0378 119.033 43.1576 118.893 43.3003 118.775C43.4292 118.67 43.6753 118.5 44 118.5C44.3084 118.5 44.5483 118.655 44.664 118.739C44.8017 118.839 44.9261 118.961 45.0302 119.074C45.24 119.301 45.4623 119.596 45.6783 119.906C46.1153 120.533 46.6132 121.349 47.074 122.139C47.423 122.737 47.7583 123.334 48.0406 123.845C48.3599 123.322 48.7443 122.705 49.1465 122.087C49.661 121.295 50.2201 120.477 50.7169 119.848C50.9631 119.537 51.2164 119.243 51.4569 119.018C51.5769 118.905 51.7151 118.79 51.8646 118.698C52.0006 118.615 52.226 118.5 52.5 118.5C52.7791 118.5 53.0068 118.619 53.1479 118.71C53.2995 118.808 53.4359 118.93 53.5514 119.047C53.7823 119.28 54.0179 119.582 54.2414 119.897C54.6928 120.533 55.1898 121.357 55.6418 122.15C55.9741 122.732 56.2906 123.314 56.5583 123.816C56.8741 123.3 57.2517 122.694 57.6465 122.087C58.161 121.295 58.7201 120.477 59.2169 119.848C59.4631 119.537 59.7164 119.243 59.9569 119.018C60.0769 118.905 60.2151 118.79 60.3646 118.698C60.5006 118.615 60.726 118.5 61 118.5C61.274 118.5 61.4994 118.615 61.6354 118.698C61.7849 118.79 61.9231 118.905 62.0431 119.018C62.2836 119.243 62.5369 119.537 62.7831 119.848C63.2799 120.477 63.839 121.295 64.3535 122.087C64.7195 122.65 65.0707 123.211 65.3716 123.701C65.5801 123.244 65.8189 122.734 66.0698 122.222C66.4593 121.427 66.8935 120.597 67.299 119.953C67.4995 119.635 67.7169 119.324 67.9384 119.08C68.0493 118.958 68.184 118.828 68.3383 118.723C68.4852 118.623 68.7156 118.5 69 118.5C69.274 118.5 69.4994 118.615 69.6354 118.698C69.7849 118.79 69.9231 118.905 70.0431 119.018C70.2836 119.243 70.5369 119.537 70.7831 119.848C71.2799 120.477 71.839 121.295 72.3535 122.087C72.7195 122.65 73.0707 123.211 73.3716 123.701C73.5801 123.244 73.8189 122.734 74.0698 122.222C74.4593 121.427 74.8935 120.597 75.299 119.953C75.4995 119.635 75.7169 119.324 75.9384 119.08C76.0493 118.958 76.184 118.828 76.3383 118.723C76.4852 118.623 76.7156 118.5 77 118.5C77.274 118.5 77.4994 118.615 77.6354 118.698C77.7849 118.79 77.9231 118.905 78.0431 119.018C78.2836 119.243 78.5369 119.537 78.7831 119.848C79.2799 120.477 79.839 121.295 80.3535 122.087C80.7483 122.694 81.1259 123.3 81.4417 123.816C81.7094 123.314 82.0259 122.732 82.3582 122.15C82.8102 121.357 83.3072 120.533 83.7586 119.897C83.9821 119.582 84.2177 119.28 84.4486 119.047C84.5641 118.93 84.7005 118.808 84.8521 118.71C84.9932 118.619 85.2209 118.5 85.5 118.5C85.7844 118.5 86.0148 118.623 86.1617 118.723C86.316 118.828 86.4507 118.958 86.5616 119.08C86.7831 119.324 87.0005 119.635 87.201 119.953C87.6065 120.597 88.0407 121.427 88.4302 122.222C88.6246 122.619 88.8117 123.014 88.9832 123.385C89.1482 123.017 89.3288 122.625 89.5175 122.232C89.9001 121.435 90.3334 120.597 90.7504 119.946C90.9569 119.623 91.1845 119.306 91.4223 119.058C91.6194 118.853 92.003 118.5 92.5 118.5C92.997 118.5 93.3806 118.853 93.5777 119.058C93.8155 119.306 94.0431 119.623 94.2496 119.946C94.6666 120.597 95.0999 121.435 95.4825 122.232C95.5986 122.474 95.7116 122.715 95.8198 122.951C95.8774 122.769 95.937 122.583 95.9982 122.398C96.2614 121.601 96.5677 120.755 96.8787 120.094C97.0319 119.768 97.2105 119.433 97.412 119.164C97.5683 118.955 97.9445 118.5 98.5 118.5C99.0555 118.5 99.4317 118.955 99.588 119.164C99.7384 119.365 99.8761 119.602 100 119.845Z" fill="#535355"/>
<line x1="42" y1="61.5" x2="100" y2="61.5" stroke="#DDE6F3" stroke-width="3"/>
<path d="M57 90C57 90 64.9089 94.8531 70.44 94.9966C76.3875 95.1509 85 90 85 90" stroke="#5B5C61" stroke-width="1.5"/>
<path d="M61.9455 61.2086L60.7369 60L55.9455 64.7914L51.1541 60L49.9455 61.2086L54.7369 66L49.9455 70.7914L51.1541 72L55.9455 67.2086L60.7369 72L61.9455 70.7914L57.1541 66L61.9455 61.2086Z" fill="#5B5C61"/>
<path d="M92 61.2086L90.7914 60L86 64.7914L81.2086 60L80 61.2086L84.7914 66L80 70.7914L81.2086 72L86 67.2086L90.7914 72L92 70.7914L87.2086 66L92 61.2086Z" fill="#5B5C61"/>
<path d="M51.4961 162.092L53.9922 149.98H58.8965L54.0449 169H49.791L46.1875 157.029L42.584 169H38.3477L33.4961 149.98H38.4004L40.8789 162.074L44.3594 149.98H48.0332L51.4961 162.092ZM60.6367 159.314C60.6367 157.428 61 155.746 61.7266 154.27C62.4531 152.793 63.4961 151.65 64.8555 150.842C66.2266 150.033 67.8145 149.629 69.6191 149.629C72.1855 149.629 74.2773 150.414 75.8945 151.984C77.5234 153.555 78.4316 155.688 78.6191 158.383L78.6543 159.684C78.6543 162.602 77.8398 164.945 76.2109 166.715C74.582 168.473 72.3965 169.352 69.6543 169.352C66.9121 169.352 64.7207 168.473 63.0801 166.715C61.4512 164.957 60.6367 162.566 60.6367 159.543V159.314ZM65.7168 159.684C65.7168 161.488 66.0566 162.871 66.7363 163.832C67.416 164.781 68.3887 165.256 69.6543 165.256C70.8848 165.256 71.8457 164.787 72.5371 163.85C73.2285 162.9 73.5742 161.389 73.5742 159.314C73.5742 157.545 73.2285 156.174 72.5371 155.201C71.8457 154.229 70.873 153.742 69.6191 153.742C68.377 153.742 67.416 154.229 66.7363 155.201C66.0566 156.162 65.7168 157.656 65.7168 159.684ZM80.9922 159.314C80.9922 157.428 81.3555 155.746 82.082 154.27C82.8086 152.793 83.8516 151.65 85.2109 150.842C86.582 150.033 88.1699 149.629 89.9746 149.629C92.541 149.629 94.6328 150.414 96.25 151.984C97.8789 153.555 98.7871 155.688 98.9746 158.383L99.0098 159.684C99.0098 162.602 98.1953 164.945 96.5664 166.715C94.9375 168.473 92.752 169.352 90.0098 169.352C87.2676 169.352 85.0762 168.473 83.4355 166.715C81.8066 164.957 80.9922 162.566 80.9922 159.543V159.314ZM86.0723 159.684C86.0723 161.488 86.4121 162.871 87.0918 163.832C87.7715 164.781 88.7441 165.256 90.0098 165.256C91.2402 165.256 92.2012 164.787 92.8926 163.85C93.584 162.9 93.9297 161.389 93.9297 159.314C93.9297 157.545 93.584 156.174 92.8926 155.201C92.2012 154.229 91.2285 153.742 89.9746 153.742C88.7324 153.742 87.7715 154.229 87.0918 155.201C86.4121 156.162 86.0723 157.656 86.0723 159.684ZM107.307 161.143H103.088L102.49 143.406H107.904L107.307 161.143ZM105.197 163.92C106.053 163.92 106.738 164.172 107.254 164.676C107.781 165.18 108.045 165.824 108.045 166.609C108.045 167.383 107.781 168.021 107.254 168.525C106.738 169.029 106.053 169.281 105.197 169.281C104.354 169.281 103.668 169.029 103.141 168.525C102.625 168.021 102.367 167.383 102.367 166.609C102.367 165.836 102.625 165.197 103.141 164.693C103.668 164.178 104.354 163.92 105.197 163.92Z" fill="#2D9CDB"/>
<defs>
<linearGradient id="paint0_linear" x1="24.9328" y1="53.0156" x2="14.9015" y2="74.8187" gradientUnits="userSpaceOnUse">
<stop stop-color="#FAB606"/>
<stop offset="1" stop-color="#BBA772" stop-opacity="0"/>
</linearGradient>
<linearGradient id="paint1_linear" x1="121.644" y1="51.5018" x2="110.74" y2="72.8816" gradientUnits="userSpaceOnUse">
<stop stop-color="#FAB606"/>
<stop offset="1" stop-color="#C5B788" stop-opacity="0"/>
</linearGradient>
</defs>
</svg>
