<svg width="310" height="254" viewBox="0 0 310 254" fill="none" xmlns="http://www.w3.org/2000/svg">
<g filter="url(#filter0_d)">
<path d="M52.9004 41.6577L49.3068 40.3477L50.1513 38.283L53.679 40.0111L53.7441 35.915L56.0348 36.0834L55.4962 40.227L59.1428 39.0498L59.6756 41.2392L55.8595 42.0045L58.0861 45.2938L56.131 46.4778L54.254 42.9087L51.9088 46.0499L50.143 44.6511L52.9004 41.6577Z" fill="#219653"/>
<path d="M43.2017 76.9886L38.3628 76.6328L42.3984 73.1429L40.8832 71.3719L35.0788 76.3914L32.7579 76.2208L32.9283 73.8959L38.7327 68.8764L37.2049 67.1162L33.1693 70.6061L33.5244 65.7587L31.2035 65.5881L30.8484 70.4355L27.3646 66.3928L25.5967 67.9107L30.6074 73.7252L30.4371 76.0501L28.1163 75.8795L23.1055 70.065L21.3484 71.5954L24.8323 75.6381L19.9933 75.2823L19.823 77.6072L24.6619 77.963L20.6263 81.4529L22.1415 83.2239L27.9459 78.2044L30.2668 78.375L30.0964 80.6999L24.292 85.7194L25.8198 87.4796L29.8554 83.9897L29.5003 88.8371L31.8212 89.0077L32.1763 84.1603L35.6601 88.203L37.428 86.6851L32.4173 80.8706L32.5876 78.5457L34.9084 78.7163L39.9192 84.5308L41.6763 83.0004L38.1924 78.9577L43.0314 79.3135L43.2017 76.9886Z" fill="#56CCF2"/>
<path d="M26.9848 129.113L20.0222 128.601L19.5113 135.576L17.1904 135.405L17.7014 128.43L10.7389 127.918L10.9092 125.594L17.8717 126.105L18.3827 119.131L20.7035 119.301L20.1926 126.276L27.1551 126.788L26.9848 129.113Z" fill="#F2994A"/>
<path d="M100.716 3.23817L98.9833 1.2275L91.0258 8.10886L84.1564 0.137472L82.1493 1.8732L89.0186 9.84459L81.0611 16.726L82.7938 18.7366L90.7513 11.8553L97.6207 19.8267L99.6279 18.0909L92.7585 10.1195L100.716 3.23817Z" fill="#2F80ED"/>
<path d="M263.947 202.427L267.621 203.488L266.92 205.605L263.282 204.123L263.497 208.214L261.2 208.203L261.454 204.032L257.897 205.456L257.216 203.308L260.971 202.284L258.525 199.154L260.394 197.839L262.511 201.271L264.636 197.977L266.493 199.252L263.947 202.427Z" fill="#219653"/>
<path d="M271.211 166.514L276.062 166.538L272.274 170.296L273.907 171.959L279.355 166.553L281.682 166.565L281.671 168.896L276.223 174.301L277.867 175.953L281.655 172.194L281.632 177.055L283.959 177.066L283.982 172.206L287.734 176L289.394 174.365L283.998 168.907L284.009 166.576L286.336 166.587L291.732 172.045L293.381 170.398L289.629 166.603L294.481 166.626L294.492 164.295L289.64 164.272L293.428 160.514L291.796 158.851L286.348 164.256L284.021 164.245L284.032 161.914L289.48 156.508L287.836 154.857L284.048 158.615L284.071 153.755L281.744 153.743L281.721 158.604L277.969 154.809L276.309 156.445L281.705 161.902L281.694 164.234L279.366 164.222L273.971 158.765L272.322 160.412L276.074 164.206L271.222 164.183L271.211 166.514Z" fill="#56CCF2"/>
<path d="M283.831 113.401L290.812 113.435L290.846 106.441L293.173 106.453L293.14 113.446L300.121 113.48L300.11 115.811L293.128 115.777L293.095 122.771L290.768 122.759L290.801 115.766L283.82 115.732L283.831 113.401Z" fill="#F2994A"/>
<path d="M218.866 244.032L220.732 245.919L228.201 238.509L235.598 245.991L237.482 244.122L230.085 236.64L237.554 229.229L235.688 227.342L228.219 234.752L220.821 227.27L218.937 229.139L226.335 236.622L218.866 244.032Z" fill="#2F80ED"/>
<ellipse cx="155.891" cy="123.071" rx="110.924" ry="111.118" fill="#E2E6E9"/>
<path d="M110.238 53.8516H82.7578V82.6797H110.238V53.8516Z" fill="#EE4A40"/>
<path d="M229.242 53.8516H167.631V82.6797H229.242V53.8516Z" fill="#EE4A40"/>
<path d="M159.516 51.7129H118.324V84.8477H159.516V51.7129Z" fill="#C12D29"/>
<path d="M110.238 53.8516L118.354 58.4805L118.324 84.8477L110.238 82.709V53.8516Z" fill="#891616"/>
<path d="M167.66 53.8516L159.516 58.4805L159.545 84.8477L167.66 82.709V53.8516Z" fill="#891616"/>
<path d="M110.238 106.322H82.7578V135.15H110.238V106.322Z" fill="#44C3D4"/>
<path d="M223.764 106.322H167.631V135.15H223.764V106.322Z" fill="#44C3D4"/>
<path d="M159.516 104.154H118.324V137.289H159.516V104.154Z" fill="#27A1AA"/>
<path d="M110.238 106.322L118.354 110.951L118.324 137.289L110.238 135.15V106.322Z" fill="#1E8184"/>
<path d="M167.66 106.322L159.516 110.951L159.545 137.289L167.66 135.15V106.322Z" fill="#1E8184"/>
<path d="M110.238 159.35H82.7578V188.178H110.238V159.35Z" fill="#95BC3D"/>
<path d="M218.256 159.35H167.631V188.178H218.256V159.35Z" fill="#95BC3D"/>
<path d="M159.574 157.152H118.383V190.287H159.574V157.152Z" fill="#78932C"/>
<path d="M110.268 159.291L118.383 163.949V190.287L110.268 188.148V159.291Z" fill="#6A7C25"/>
<path d="M167.689 159.291L159.574 163.949L159.604 190.287L167.689 188.148V159.291Z" fill="#6A7C25"/>
<path d="M190.336 173.148C190.658 173.148 190.922 173.061 191.098 172.885C191.273 172.709 191.332 172.475 191.332 172.152C191.332 171.889 191.244 171.654 191.068 171.508C190.893 171.332 190.658 171.244 190.365 171.244C190.102 171.244 189.896 171.332 189.721 171.479C189.545 171.625 189.457 171.83 189.457 172.094H188.08V172.064C188.051 171.508 188.285 171.068 188.725 170.688C189.164 170.336 189.721 170.16 190.365 170.16C191.098 170.16 191.684 170.336 192.094 170.688C192.533 171.039 192.738 171.537 192.738 172.182C192.738 172.504 192.65 172.797 192.445 173.061C192.27 173.324 192.006 173.529 191.684 173.705C192.064 173.852 192.328 174.057 192.533 174.35C192.738 174.643 192.826 174.965 192.826 175.375C192.826 176.02 192.592 176.518 192.123 176.898C191.654 177.279 191.068 177.455 190.336 177.455C189.691 177.455 189.135 177.279 188.637 176.928C188.168 176.576 187.934 176.078 187.934 175.463V175.434H189.311C189.311 175.697 189.398 175.932 189.604 176.107C189.779 176.283 190.043 176.371 190.336 176.371C190.658 176.371 190.922 176.283 191.127 176.078C191.332 175.873 191.42 175.639 191.42 175.346C191.42 174.965 191.332 174.701 191.127 174.525C190.951 174.35 190.658 174.262 190.307 174.262H189.516V173.148H190.336Z" fill="white"/>
<path d="M197.074 177.309H195.668V171.479H194.203V170.395L197.074 170.131V177.309Z" fill="white"/>
<path d="M199.389 171.596C199.389 171.186 199.535 170.834 199.799 170.541C200.062 170.277 200.443 170.131 200.912 170.131C201.41 170.131 201.791 170.277 202.055 170.541C202.318 170.805 202.465 171.156 202.465 171.596V171.977C202.465 172.387 202.318 172.738 202.055 173.002C201.791 173.266 201.41 173.412 200.941 173.412C200.443 173.412 200.092 173.266 199.799 173.002C199.535 172.738 199.389 172.387 199.389 171.977V171.596ZM200.326 171.977C200.326 172.152 200.385 172.328 200.473 172.445C200.59 172.562 200.736 172.65 200.912 172.65C201.088 172.65 201.234 172.592 201.352 172.445C201.439 172.328 201.498 172.152 201.498 171.977V171.596C201.498 171.42 201.439 171.244 201.352 171.127C201.234 171.01 201.088 170.922 200.912 170.922C200.707 170.922 200.59 170.98 200.473 171.127C200.385 171.244 200.326 171.42 200.326 171.596V171.977ZM201.146 176.781L200.473 176.43L203.93 170.922L204.604 171.273L201.146 176.781ZM202.758 175.58C202.758 175.17 202.904 174.818 203.168 174.555C203.432 174.291 203.812 174.145 204.311 174.145C204.809 174.145 205.16 174.291 205.453 174.555C205.717 174.818 205.863 175.17 205.863 175.58V175.961C205.863 176.371 205.717 176.723 205.453 177.016C205.189 177.279 204.809 177.426 204.34 177.426C203.842 177.426 203.49 177.279 203.197 177.016C202.934 176.752 202.787 176.4 202.787 175.99V175.58H202.758ZM203.695 175.932C203.695 176.107 203.754 176.283 203.871 176.4C203.988 176.518 204.135 176.605 204.311 176.605C204.516 176.605 204.662 176.547 204.75 176.43C204.838 176.313 204.896 176.137 204.896 175.932V175.551C204.896 175.375 204.838 175.199 204.75 175.082C204.633 174.965 204.486 174.877 204.311 174.877C204.105 174.877 203.959 174.936 203.871 175.082C203.783 175.199 203.725 175.375 203.725 175.551V175.932H203.695Z" fill="white"/>
<path d="M191.537 119.975C191.947 119.975 192.27 119.857 192.445 119.652C192.65 119.447 192.738 119.125 192.738 118.744C192.738 118.422 192.621 118.158 192.416 117.924C192.211 117.719 191.918 117.602 191.537 117.602C191.215 117.602 190.951 117.689 190.746 117.895C190.541 118.1 190.424 118.334 190.424 118.627H188.754V118.598C188.725 117.924 188.988 117.367 189.545 116.928C190.102 116.488 190.775 116.254 191.566 116.254C192.475 116.254 193.178 116.459 193.705 116.898C194.232 117.309 194.496 117.924 194.496 118.715C194.496 119.125 194.379 119.477 194.145 119.799C193.91 120.121 193.617 120.385 193.207 120.59C193.646 120.766 193.998 121.029 194.262 121.381C194.496 121.732 194.643 122.143 194.643 122.641C194.643 123.432 194.35 124.047 193.793 124.516C193.207 124.984 192.475 125.189 191.596 125.189C190.805 125.189 190.102 124.984 189.516 124.545C188.93 124.105 188.637 123.52 188.666 122.729V122.699H190.365C190.365 123.021 190.482 123.285 190.717 123.52C190.951 123.754 191.244 123.842 191.596 123.842C192.006 123.842 192.328 123.725 192.562 123.49C192.797 123.256 192.943 122.963 192.943 122.611C192.943 122.143 192.826 121.82 192.592 121.586C192.357 121.352 192.035 121.264 191.566 121.264H190.57V119.945H191.537V119.975Z" fill="white"/>
<path d="M201.615 125.072H195.785V123.93L198.48 120.883C198.891 120.414 199.154 120.004 199.33 119.682C199.506 119.359 199.594 119.066 199.594 118.773C199.594 118.422 199.506 118.129 199.33 117.924C199.154 117.719 198.891 117.602 198.539 117.602C198.158 117.602 197.865 117.748 197.66 118.012C197.455 118.275 197.338 118.627 197.338 119.066H195.639V119.037C195.609 118.275 195.873 117.602 196.4 117.074C196.928 116.547 197.631 116.283 198.539 116.283C199.418 116.283 200.121 116.518 200.619 116.957C201.117 117.426 201.352 118.012 201.352 118.803C201.352 119.33 201.205 119.799 200.941 120.238C200.678 120.678 200.18 121.264 199.506 122.025L198.07 123.754V123.783H201.615V125.072Z" fill="white"/>
<path d="M202.67 118.07C202.67 117.543 202.846 117.133 203.168 116.781C203.49 116.43 203.959 116.254 204.545 116.254C205.131 116.254 205.6 116.43 205.951 116.752C206.273 117.104 206.449 117.514 206.449 118.041V118.51C206.449 119.037 206.273 119.447 205.951 119.799C205.629 120.15 205.16 120.297 204.574 120.297C203.988 120.297 203.52 120.121 203.168 119.799C202.846 119.447 202.67 119.037 202.67 118.51V118.07ZM203.813 118.51C203.813 118.744 203.871 118.92 204.018 119.096C204.135 119.242 204.34 119.33 204.574 119.33C204.809 119.33 204.984 119.242 205.102 119.096C205.219 118.949 205.277 118.744 205.277 118.51V118.07C205.277 117.836 205.219 117.631 205.072 117.484C204.955 117.338 204.75 117.25 204.516 117.25C204.281 117.25 204.105 117.338 203.988 117.484C203.871 117.631 203.813 117.836 203.813 118.07V118.51ZM204.838 124.428L203.988 123.988L208.236 117.191L209.086 117.631L204.838 124.428ZM206.801 122.934C206.801 122.436 206.977 121.996 207.299 121.645C207.621 121.293 208.09 121.117 208.676 121.117C209.262 121.117 209.73 121.293 210.082 121.615C210.404 121.967 210.58 122.377 210.58 122.904V123.373C210.58 123.9 210.404 124.311 210.082 124.662C209.76 125.014 209.291 125.16 208.705 125.16C208.119 125.16 207.65 124.984 207.299 124.662C206.977 124.311 206.801 123.9 206.801 123.373V122.934ZM207.973 123.402C207.973 123.637 208.031 123.812 208.178 123.988C208.324 124.135 208.5 124.223 208.705 124.223C208.969 124.223 209.145 124.135 209.262 123.988C209.379 123.842 209.438 123.637 209.438 123.402V122.934C209.438 122.699 209.379 122.523 209.232 122.348C209.115 122.201 208.91 122.113 208.676 122.113C208.441 122.113 208.266 122.201 208.119 122.348C208.002 122.494 207.943 122.699 207.943 122.934V123.402H207.973Z" fill="white"/>
<path d="M192.24 67.416C192.709 67.416 193.061 67.2988 193.266 67.0645C193.5 66.8301 193.617 66.4785 193.617 66.0391C193.617 65.6582 193.5 65.3652 193.266 65.1309C193.031 64.8965 192.709 64.7793 192.27 64.7793C191.918 64.7793 191.625 64.8965 191.361 65.1016C191.127 65.3066 191.01 65.5996 191.01 65.9512H189.105V65.9219C189.076 65.1602 189.369 64.5156 189.984 64.0176C190.6 63.5195 191.361 63.2852 192.27 63.2852C193.295 63.2852 194.086 63.5195 194.672 63.9883C195.258 64.457 195.551 65.1602 195.551 66.0391C195.551 66.4785 195.434 66.8887 195.17 67.2695C194.906 67.6504 194.555 67.9434 194.115 68.1484C194.613 68.3535 195.023 68.6465 195.287 69.0273C195.551 69.4082 195.697 69.9063 195.697 70.4336C195.697 71.3418 195.375 72.0449 194.73 72.543C194.086 73.041 193.266 73.3047 192.24 73.3047C191.361 73.3047 190.57 73.0703 189.896 72.5723C189.223 72.1035 188.9 71.4004 188.93 70.5508V70.5215H190.834C190.834 70.9023 190.951 71.1953 191.215 71.4297C191.479 71.6641 191.801 71.8105 192.211 71.8105C192.65 71.8105 193.031 71.6641 193.295 71.4004C193.559 71.1367 193.705 70.8145 193.705 70.4043C193.705 69.877 193.588 69.4961 193.324 69.2617C193.061 69.0273 192.68 68.8809 192.182 68.8809H191.156V67.416H192.24Z" fill="white"/>
<path d="M200.121 67.416C200.59 67.416 200.941 67.2988 201.146 67.0645C201.381 66.8301 201.498 66.4785 201.498 66.0391C201.498 65.6582 201.381 65.3652 201.146 65.1309C200.912 64.8965 200.59 64.7793 200.15 64.7793C199.799 64.7793 199.506 64.8965 199.242 65.1016C199.008 65.3066 198.891 65.5996 198.891 65.9512H196.986V65.9219C196.957 65.1602 197.25 64.5156 197.865 64.0176C198.48 63.5195 199.242 63.2852 200.15 63.2852C201.176 63.2852 201.967 63.5195 202.553 63.9883C203.139 64.457 203.432 65.1602 203.432 66.0391C203.432 66.4785 203.314 66.8887 203.051 67.2695C202.787 67.6504 202.436 67.9434 201.996 68.1484C202.494 68.3535 202.904 68.6465 203.168 69.0273C203.432 69.4082 203.578 69.9063 203.578 70.4336C203.578 71.3418 203.256 72.0449 202.611 72.543C201.967 73.041 201.146 73.3047 200.121 73.3047C199.242 73.3047 198.451 73.0703 197.777 72.5723C197.104 72.1035 196.781 71.4004 196.811 70.5508V70.5215H198.715C198.715 70.9023 198.832 71.1953 199.096 71.4297C199.359 71.6641 199.682 71.8105 200.092 71.8105C200.531 71.8105 200.912 71.6641 201.176 71.4004C201.439 71.1367 201.586 70.8145 201.586 70.4043C201.586 69.877 201.469 69.4961 201.205 69.2617C200.941 69.0273 200.561 68.8809 200.063 68.8809H198.979V67.416H200.121Z" fill="white"/>
<path d="M204.75 65.2773C204.75 64.6914 204.926 64.2227 205.307 63.8418C205.687 63.4609 206.186 63.2559 206.859 63.2559C207.533 63.2559 208.061 63.4609 208.441 63.8418C208.822 64.2227 208.998 64.7207 208.998 65.2773V65.8047C208.998 66.3906 208.822 66.8594 208.441 67.2402C208.061 67.6211 207.563 67.7969 206.889 67.7969C206.215 67.7969 205.687 67.6211 205.307 67.2402C204.926 66.8594 204.75 66.3906 204.75 65.8047V65.2773ZM206.039 65.7754C206.039 66.0391 206.098 66.2441 206.244 66.4199C206.391 66.5957 206.596 66.6836 206.859 66.6836C207.123 66.6836 207.328 66.5957 207.445 66.4199C207.592 66.2441 207.65 66.0391 207.65 65.7754V65.248C207.65 64.9844 207.592 64.7793 207.445 64.5742C207.299 64.3984 207.094 64.3105 206.83 64.3105C206.566 64.3105 206.361 64.3984 206.215 64.5742C206.068 64.75 206.01 64.9844 206.01 65.248V65.7754H206.039ZM207.211 72.4258L206.244 71.9277L211.02 64.2813L211.986 64.7793L207.211 72.4258ZM209.408 70.7559C209.408 70.1699 209.584 69.7012 209.965 69.3203C210.346 68.9395 210.873 68.7344 211.518 68.7344C212.191 68.7344 212.719 68.9395 213.07 69.3203C213.451 69.7012 213.627 70.1699 213.627 70.7559V71.2832C213.627 71.8691 213.451 72.3379 213.07 72.7188C212.689 73.0996 212.191 73.2754 211.518 73.2754C210.844 73.2754 210.316 73.0703 209.936 72.6895C209.555 72.3086 209.379 71.8398 209.379 71.2539V70.7559H209.408ZM210.727 71.2832C210.727 71.5469 210.814 71.752 210.961 71.9277C211.107 72.1035 211.313 72.1914 211.576 72.1914C211.869 72.1914 212.074 72.1035 212.191 71.9277C212.309 71.752 212.367 71.5469 212.367 71.2539V70.7266C212.367 70.4629 212.309 70.2578 212.162 70.082C212.016 69.9062 211.811 69.8184 211.547 69.8184C211.283 69.8184 211.078 69.9062 210.932 70.082C210.785 70.2578 210.727 70.4922 210.727 70.7266V71.2832Z" fill="white"/>
<path d="M139.799 71.8398H135.756L134.906 74.5352H132.27L136.488 62.0254H139.066L143.256 74.5352H140.648L139.799 71.8398ZM136.371 69.8477H139.184L137.807 65.4531H137.748L136.371 69.8477Z" fill="white"/>
<path d="M133.383 126.596V114.877H137.221C138.598 114.877 139.682 115.141 140.443 115.697C141.205 116.225 141.615 117.045 141.615 118.1C141.615 118.627 141.469 119.125 141.205 119.535C140.912 119.945 140.531 120.268 139.975 120.502C140.707 120.648 141.264 120.941 141.615 121.439C141.996 121.937 142.172 122.523 142.172 123.197C142.172 124.311 141.791 125.16 141.059 125.746C140.326 126.332 139.271 126.625 137.924 126.625H133.383V126.596ZM135.727 119.799H137.309C137.924 119.799 138.422 119.682 138.744 119.418C139.096 119.154 139.242 118.773 139.242 118.305C139.242 117.777 139.066 117.367 138.744 117.104C138.393 116.84 137.895 116.723 137.221 116.723H135.727V119.799ZM135.727 121.41V124.779H137.895C138.51 124.779 138.979 124.633 139.33 124.369C139.652 124.105 139.828 123.695 139.828 123.168C139.828 122.611 139.682 122.172 139.359 121.85C139.037 121.557 138.539 121.381 137.895 121.381H135.727V121.41Z" fill="white"/>
<path d="M142.143 175.668L142.172 175.727C142.201 176.928 141.82 177.865 141.059 178.568C140.297 179.242 139.271 179.594 137.924 179.594C136.576 179.594 135.463 179.154 134.643 178.275C133.822 177.396 133.383 176.283 133.383 174.906V172.65C133.383 171.273 133.793 170.131 134.613 169.281C135.434 168.402 136.488 167.963 137.807 167.963C139.184 167.963 140.268 168.285 141.029 168.959C141.82 169.633 142.172 170.57 142.172 171.801L142.143 171.859H139.945C139.945 171.127 139.77 170.6 139.418 170.248C139.066 169.896 138.539 169.721 137.807 169.721C137.133 169.721 136.605 169.984 136.225 170.541C135.844 171.098 135.668 171.801 135.668 172.65V174.906C135.668 175.785 135.873 176.488 136.283 177.045C136.693 177.602 137.25 177.865 137.953 177.865C138.627 177.865 139.125 177.689 139.477 177.338C139.799 176.986 139.975 176.43 139.975 175.697H142.143V175.668Z" fill="white"/>
</g>
<defs>
<filter id="filter0_d" x="0" y="0" width="310" height="254" filterUnits="userSpaceOnUse" color-interpolation-filters="sRGB">
<feFlood flood-opacity="0" result="BackgroundImageFix"/>
<feColorMatrix in="SourceAlpha" type="matrix" values="0 0 0 0 0 0 0 0 0 0 0 0 0 0 0 0 0 0 127 0"/>
<feOffset dy="4"/>
<feGaussianBlur stdDeviation="2"/>
<feColorMatrix type="matrix" values="0 0 0 0 0 0 0 0 0 0 0 0 0 0 0 0 0 0 0.25 0"/>
<feBlend mode="normal" in2="BackgroundImageFix" result="effect1_dropShadow"/>
<feBlend mode="normal" in="SourceGraphic" in2="effect1_dropShadow" result="shape"/>
</filter>
</defs>
</svg>
