<svg width="24" height="24" viewBox="0 0 24 24" fill="none" xmlns="http://www.w3.org/2000/svg">
<path fill-rule="evenodd" clip-rule="evenodd" d="M4 4H10L12 6H20C21.1 6 22 6.9 22 8V18C22 19.1 21.1 20 20 20H4C2.9 20 2 19.1 2 18L2.01 6C2.01 4.9 2.9 4 4 4ZM11.17 8L9.17 6H4V18H20V8H11.17Z" fill="#BFBFBF"/>
<path fill-rule="evenodd" clip-rule="evenodd" d="M15.1259 13C15.1259 13.1417 15.1134 13.275 15.0967 13.4084L15.9759 14.0959C16.0551 14.1584 16.0759 14.2709 16.0259 14.3625L15.1926 15.8042C15.1551 15.8709 15.0842 15.9084 15.0134 15.9084C14.9884 15.9084 14.9634 15.9042 14.9384 15.8959L13.9009 15.4792C13.6842 15.6417 13.4509 15.7834 13.1967 15.8875L13.0384 16.9917C13.0259 17.0917 12.9384 17.1667 12.8342 17.1667H11.1676C11.0634 17.1667 10.9759 17.0917 10.9634 16.9917L10.8051 15.8875C10.5509 15.7834 10.3176 15.6459 10.1009 15.4792L9.06341 15.8959C9.04258 15.9042 9.01758 15.9084 8.99258 15.9084C8.91758 15.9084 8.84674 15.8709 8.80924 15.8042L7.97591 14.3625C7.92591 14.2709 7.94674 14.1584 8.02591 14.0959L8.90508 13.4084C8.88841 13.275 8.87591 13.1375 8.87591 13C8.87591 12.8625 8.88841 12.725 8.90508 12.5917L8.02591 11.9042C7.94674 11.8417 7.92174 11.7292 7.97591 11.6375L8.80924 10.1959C8.84674 10.1292 8.91758 10.0917 8.98841 10.0917C9.01341 10.0917 9.03841 10.0959 9.06341 10.1042L10.1009 10.5209C10.3176 10.3584 10.5509 10.2167 10.8051 10.1125L10.9634 9.00837C10.9759 8.90837 11.0634 8.83337 11.1676 8.83337H12.8342C12.9384 8.83337 13.0259 8.90837 13.0384 9.00837L13.1967 10.1125C13.4509 10.2167 13.6842 10.3542 13.9009 10.5209L14.9384 10.1042C14.9592 10.0959 14.9842 10.0917 15.0092 10.0917C15.0842 10.0917 15.1551 10.1292 15.1926 10.1959L16.0259 11.6375C16.0759 11.7292 16.0551 11.8417 15.9759 11.9042L15.0967 12.5917C15.1134 12.725 15.1259 12.8584 15.1259 13ZM14.2926 13C14.2926 12.9125 14.2884 12.825 14.2717 12.6959L14.2134 12.225L14.5842 11.9334L15.0301 11.5792L14.7384 11.075L14.2092 11.2875L13.7676 11.4667L13.3884 11.175C13.2217 11.05 13.0551 10.9542 12.8759 10.8792L12.4342 10.7L12.3676 10.2292L12.2884 9.66671H11.7092L11.6259 10.2292L11.5592 10.7L11.1176 10.8792C10.9467 10.95 10.7759 11.05 10.5967 11.1834L10.2217 11.4667L9.78841 11.2917L9.25924 11.0792L8.96757 11.5834L9.41757 11.9334L9.78841 12.225L9.73007 12.6959C9.71757 12.8209 9.70924 12.9167 9.70924 13C9.70924 13.0834 9.71757 13.1792 9.73007 13.3084L9.78841 13.7792L9.41757 14.0709L8.96757 14.4209L9.25924 14.925L9.78841 14.7125L10.2301 14.5334L10.6092 14.825C10.7759 14.95 10.9426 15.0459 11.1217 15.1209L11.5634 15.3L11.6301 15.7709L11.7092 16.3334H12.2926L12.3759 15.7709L12.4426 15.3L12.8842 15.1209C13.0551 15.05 13.2259 14.95 13.4051 14.8167L13.7801 14.5334L14.2134 14.7084L14.7426 14.9209L15.0342 14.4167L14.5842 14.0667L14.2134 13.775L14.2717 13.3042C14.2842 13.1792 14.2926 13.0875 14.2926 13ZM12.0009 11.3334C11.0801 11.3334 10.3342 12.0792 10.3342 13C10.3342 13.9209 11.0801 14.6667 12.0009 14.6667C12.9217 14.6667 13.6676 13.9209 13.6676 13C13.6676 12.0792 12.9217 11.3334 12.0009 11.3334ZM11.1676 13C11.1676 13.4584 11.5426 13.8334 12.0009 13.8334C12.4592 13.8334 12.8342 13.4584 12.8342 13C12.8342 12.5417 12.4592 12.1667 12.0009 12.1667C11.5426 12.1667 11.1676 12.5417 11.1676 13Z" fill="#BFBFBF"/>
</svg>
