<svg width="310" height="254" viewBox="0 0 310 254" fill="none" xmlns="http://www.w3.org/2000/svg">
<g filter="url(#filter0_d)">
<path d="M52.9004 41.6587L49.3068 40.3487L50.1513 38.284L53.679 40.0121L53.7441 35.916L56.0348 36.0844L55.4962 40.2279L59.1428 39.0507L59.6756 41.2402L55.8595 42.0055L58.0861 45.2947L56.131 46.4788L54.254 42.9097L51.9088 46.0509L50.143 44.6521L52.9004 41.6587Z" fill="#219653"/>
<path d="M43.2017 76.9886L38.3628 76.6328L42.3984 73.1429L40.8832 71.3719L35.0788 76.3914L32.7579 76.2208L32.9283 73.8959L38.7327 68.8764L37.2049 67.1162L33.1693 70.6061L33.5244 65.7587L31.2035 65.5881L30.8484 70.4355L27.3646 66.3928L25.5967 67.9107L30.6074 73.7252L30.4371 76.0501L28.1163 75.8795L23.1055 70.065L21.3484 71.5954L24.8323 75.6381L19.9933 75.2823L19.823 77.6072L24.6619 77.963L20.6263 81.4529L22.1415 83.2239L27.9459 78.2044L30.2668 78.375L30.0964 80.6999L24.292 85.7194L25.8198 87.4796L29.8554 83.9897L29.5003 88.8371L31.8212 89.0077L32.1763 84.1603L35.6601 88.203L37.428 86.6851L32.4173 80.8706L32.5876 78.5457L34.9084 78.7163L39.9192 84.5308L41.6763 83.0004L38.1924 78.9577L43.0314 79.3135L43.2017 76.9886Z" fill="#56CCF2"/>
<path d="M26.9848 129.111L20.0222 128.599L19.5113 135.574L17.1904 135.403L17.7014 128.429L10.7389 127.917L10.9092 125.592L17.8717 126.104L18.3827 119.129L20.7035 119.3L20.1926 126.274L27.1551 126.786L26.9848 129.111Z" fill="#F2994A"/>
<path d="M100.716 3.23817L98.9833 1.2275L91.0258 8.10886L84.1564 0.137472L82.1493 1.8732L89.0186 9.84459L81.0611 16.726L82.7938 18.7366L90.7513 11.8553L97.6207 19.8267L99.6279 18.0909L92.7585 10.1195L100.716 3.23817Z" fill="#2F80ED"/>
<path d="M263.947 202.427L267.621 203.488L266.92 205.605L263.282 204.123L263.497 208.214L261.2 208.203L261.454 204.032L257.897 205.456L257.216 203.309L260.971 202.284L258.525 199.155L260.394 197.84L262.511 201.272L264.636 197.977L266.493 199.252L263.947 202.427Z" fill="#219653"/>
<path d="M271.211 166.515L276.062 166.538L272.274 170.296L273.907 171.959L279.355 166.554L281.682 166.565L281.671 168.896L276.223 174.302L277.867 175.953L281.655 172.195L281.632 177.055L283.959 177.067L283.982 172.206L287.734 176.001L289.394 174.365L283.998 168.908L284.009 166.577L286.336 166.588L291.732 172.046L293.381 170.398L289.629 166.604L294.481 166.627L294.492 164.296L289.64 164.273L293.428 160.514L291.796 158.851L286.348 164.257L284.021 164.245L284.032 161.914L289.48 156.509L287.836 154.858L284.048 158.616L284.071 153.755L281.744 153.744L281.721 158.605L277.969 154.81L276.309 156.445L281.705 161.903L281.694 164.234L279.366 164.223L273.971 158.765L272.322 160.413L276.074 164.207L271.222 164.184L271.211 166.515Z" fill="#56CCF2"/>
<path d="M283.831 113.402L290.812 113.435L290.846 106.442L293.173 106.453L293.14 113.447L300.121 113.48L300.11 115.811L293.128 115.778L293.095 122.771L290.768 122.76L290.801 115.766L283.82 115.733L283.831 113.402Z" fill="#F2994A"/>
<path d="M218.866 244.032L220.732 245.919L228.201 238.509L235.598 245.991L237.482 244.122L230.085 236.64L237.554 229.229L235.688 227.342L228.219 234.752L220.821 227.27L218.937 229.139L226.335 236.622L218.866 244.032Z" fill="#2F80ED"/>
<ellipse cx="155.891" cy="123.071" rx="110.924" ry="111.118" fill="#E2E6E9"/>
<path d="M108.333 65.666C100.969 65.666 95 71.666 95 78.9993V172.333C95 179.666 100.969 185.666 108.333 185.666H148.333H161.667H201.667C209.033 185.666 215 179.666 215 172.333V78.9993C215 71.666 209.033 65.666 201.667 65.666H161.667H148.333H108.333Z" fill="#BDC3C7"/>
<path d="M108.333 59C100.969 59 95 64.9693 95 72.3333V165.667C95 173.033 100.969 179 108.333 179H148.333H161.667H201.667C209.033 179 215 173.033 215 165.667V72.3333C215 64.9693 209.033 59 201.667 59H161.667H148.333H108.333Z" fill="#ECF0F1"/>
<path d="M108.333 59C100.969 59 95 64.9693 95 72.3333V92.3333V99H215V92.3333V72.3333C215 64.9693 209.033 59 201.667 59H161.667H148.333H108.333Z" fill="#E74C3C"/>
<path d="M125 75.666C125 76.9792 124.741 78.2796 124.239 79.4928C123.736 80.7061 123 81.8085 122.071 82.7371C121.142 83.6657 120.04 84.4023 118.827 84.9048C117.614 85.4074 116.313 85.666 115 85.666C113.687 85.666 112.386 85.4074 111.173 84.9048C109.96 84.4023 108.858 83.6657 107.929 82.7371C107 81.8085 106.264 80.7061 105.761 79.4928C105.259 78.2796 105 76.9792 105 75.666C105 74.3528 105.259 73.0524 105.761 71.8392C106.264 70.6259 107 69.5235 107.929 68.5949C108.858 67.6664 109.96 66.9298 111.173 66.4272C112.386 65.9247 113.687 65.666 115 65.666C116.313 65.666 117.614 65.9247 118.827 66.4272C120.04 66.9298 121.142 67.6664 122.071 68.5949C123 69.5235 123.736 70.6259 124.239 71.8392C124.741 73.0524 125 74.3528 125 75.666Z" fill="#C0392B"/>
<path d="M115 45.666C111.318 45.666 108.333 48.6507 108.333 52.3327V72.3327C108.333 76.0147 111.318 78.9993 115 78.9993C118.682 78.9993 121.667 76.0147 121.667 72.3327V52.3327C121.667 48.6507 118.682 45.666 115 45.666Z" fill="#BDC3C7"/>
<path d="M205 75.666C205 76.9792 204.741 78.2796 204.239 79.4928C203.736 80.7061 203 81.8085 202.071 82.7371C201.142 83.6657 200.04 84.4023 198.827 84.9048C197.614 85.4074 196.313 85.666 195 85.666C193.687 85.666 192.386 85.4074 191.173 84.9048C189.96 84.4023 188.858 83.6657 187.929 82.7371C187 81.8085 186.264 80.7061 185.761 79.4928C185.259 78.2796 185 76.9792 185 75.666C185 74.3528 185.259 73.0524 185.761 71.8392C186.264 70.6259 187 69.5235 187.929 68.5949C188.858 67.6664 189.96 66.9298 191.173 66.4272C192.386 65.9247 193.687 65.666 195 65.666C196.313 65.666 197.614 65.9247 198.827 66.4272C200.04 66.9298 201.142 67.6664 202.071 68.5949C203 69.5235 203.736 70.6259 204.239 71.8392C204.741 73.0524 205 74.3528 205 75.666Z" fill="#C0392B"/>
<path d="M195 45.666C191.32 45.666 188.333 48.3327 188.333 52.3327V72.3327C188.333 75.666 191.32 78.9993 195 78.9993C198.68 78.9993 201.667 75.666 201.667 72.3327V52.3327C201.667 48.3327 198.68 45.666 195 45.666Z" fill="#BDC3C7"/>
<path d="M108.333 112.332V125.665H121.667V112.332H108.333ZM128.333 112.332V125.665H141.667V112.332H128.333ZM148.333 112.332V125.665H161.667V112.332H148.333ZM168.333 112.332V125.665H181.667V112.332H168.333ZM188.333 112.332V125.665H201.667V112.332H188.333Z" fill="#BDC3C7"/>
<path d="M108.333 132.332V145.665H121.667V132.332H108.333ZM128.333 132.332V145.665H141.667V132.332H128.333ZM148.333 132.332V145.665H161.667V132.332H148.333ZM168.333 132.332V145.665H181.667V132.332H168.333ZM188.333 132.332V145.665H201.667V132.332H188.333Z" fill="#BDC3C7"/>
<path d="M108.333 152.332V165.665H121.667V152.332H108.333ZM128.333 152.332V165.665H141.667V152.332H128.333ZM148.333 152.332V165.665H161.667V152.332H148.333ZM168.333 152.332V165.665H181.667V152.332H168.333ZM188.333 152.332V165.665H201.667V152.332H188.333Z" fill="#BDC3C7"/>
<path d="M231.331 162.653C231.331 171.404 227.854 179.797 221.666 185.985C215.478 192.173 207.085 195.649 198.334 195.649C189.583 195.649 181.19 192.173 175.002 185.985C168.814 179.797 165.338 171.404 165.338 162.653C165.338 153.901 168.814 145.509 175.002 139.321C181.19 133.133 189.583 129.656 198.334 129.656C207.085 129.656 215.478 133.133 221.666 139.321C227.854 145.509 231.331 153.901 231.331 162.653Z" fill="#34495E"/>
<path d="M198.333 132.332C196.493 132.332 195 133.825 195 135.665V138.999V158.999V162.332C195 164.172 196.493 165.665 198.333 165.665H201.667H215H218.333C220.173 165.665 221.667 164.172 221.667 162.332C221.667 160.492 220.173 158.999 218.333 158.999H215H201.667V138.999V135.665C201.667 133.825 200.173 132.332 198.333 132.332Z" fill="#BDC3C7"/>
<path d="M198.333 125.666C178.08 125.666 161.667 141.666 161.667 162.333C161.667 182.333 178.08 198.999 198.333 198.999C218.587 198.999 235 182.333 235 162.333C235 141.666 218.587 125.666 198.333 125.666ZM198.333 132.333C214.9 132.333 228.333 145.666 228.333 162.333C228.333 178.333 214.9 192.333 198.333 192.333C181.767 192.333 168.333 178.333 168.333 162.333C168.333 145.666 181.767 132.333 198.333 132.333Z" fill="#7F8C8D"/>
<path d="M201.667 162.333C201.667 164.173 200.173 165.667 198.333 165.667C196.493 165.667 195 164.173 195 162.333C195 160.493 196.493 159 198.333 159C200.173 159 201.667 160.493 201.667 162.333Z" fill="#95A5A6"/>
</g>
<defs>
<filter id="filter0_d" x="0" y="0" width="310" height="254" filterUnits="userSpaceOnUse" color-interpolation-filters="sRGB">
<feFlood flood-opacity="0" result="BackgroundImageFix"/>
<feColorMatrix in="SourceAlpha" type="matrix" values="0 0 0 0 0 0 0 0 0 0 0 0 0 0 0 0 0 0 127 0"/>
<feOffset dy="4"/>
<feGaussianBlur stdDeviation="2"/>
<feColorMatrix type="matrix" values="0 0 0 0 0 0 0 0 0 0 0 0 0 0 0 0 0 0 0.25 0"/>
<feBlend mode="normal" in2="BackgroundImageFix" result="effect1_dropShadow"/>
<feBlend mode="normal" in="SourceGraphic" in2="effect1_dropShadow" result="shape"/>
</filter>
</defs>
</svg>
