<svg width="310" height="254" viewBox="0 0 310 254" fill="none" xmlns="http://www.w3.org/2000/svg">
<g filter="url(#filter0_d)">
<path d="M52.9004 41.6587L49.3068 40.3487L50.1513 38.284L53.679 40.0121L53.7441 35.916L56.0348 36.0844L55.4962 40.2279L59.1428 39.0507L59.6756 41.2402L55.8595 42.0055L58.0861 45.2947L56.131 46.4788L54.254 42.9097L51.9088 46.0509L50.143 44.6521L52.9004 41.6587Z" fill="#219653"/>
<path d="M43.2017 76.9886L38.3628 76.6328L42.3984 73.1429L40.8832 71.3719L35.0788 76.3914L32.7579 76.2208L32.9283 73.8959L38.7327 68.8764L37.2049 67.1162L33.1693 70.6061L33.5244 65.7587L31.2035 65.5881L30.8484 70.4355L27.3646 66.3928L25.5967 67.9107L30.6074 73.7252L30.4371 76.0501L28.1163 75.8795L23.1055 70.065L21.3484 71.5954L24.8323 75.6381L19.9933 75.2823L19.823 77.6072L24.6619 77.963L20.6263 81.4529L22.1415 83.2239L27.9459 78.2044L30.2668 78.375L30.0964 80.6999L24.292 85.7194L25.8198 87.4796L29.8554 83.9897L29.5003 88.8371L31.8212 89.0077L32.1763 84.1603L35.6601 88.203L37.428 86.6851L32.4173 80.8706L32.5876 78.5457L34.9084 78.7163L39.9192 84.5308L41.6763 83.0004L38.1924 78.9577L43.0314 79.3135L43.2017 76.9886Z" fill="#56CCF2"/>
<path d="M26.9848 129.111L20.0222 128.599L19.5113 135.574L17.1904 135.403L17.7014 128.429L10.7389 127.917L10.9092 125.592L17.8717 126.104L18.3827 119.129L20.7035 119.3L20.1926 126.274L27.1551 126.786L26.9848 129.111Z" fill="#F2994A"/>
<path d="M100.716 3.23817L98.9833 1.2275L91.0258 8.10886L84.1564 0.137472L82.1493 1.8732L89.0186 9.84459L81.0611 16.726L82.7938 18.7366L90.7513 11.8553L97.6207 19.8267L99.6279 18.0909L92.7585 10.1195L100.716 3.23817Z" fill="#2F80ED"/>
<path d="M263.947 202.427L267.621 203.488L266.92 205.605L263.282 204.123L263.497 208.214L261.2 208.203L261.454 204.032L257.897 205.456L257.216 203.309L260.971 202.284L258.525 199.155L260.394 197.84L262.511 201.272L264.636 197.977L266.493 199.252L263.947 202.427Z" fill="#219653"/>
<path d="M271.211 166.515L276.062 166.538L272.274 170.296L273.907 171.959L279.355 166.554L281.682 166.565L281.671 168.896L276.223 174.302L277.867 175.953L281.655 172.195L281.632 177.055L283.959 177.067L283.982 172.206L287.734 176.001L289.394 174.365L283.998 168.908L284.009 166.577L286.336 166.588L291.732 172.046L293.381 170.398L289.629 166.604L294.481 166.627L294.492 164.296L289.64 164.273L293.428 160.514L291.796 158.851L286.348 164.257L284.021 164.245L284.032 161.914L289.48 156.509L287.836 154.858L284.048 158.616L284.071 153.755L281.744 153.744L281.721 158.605L277.969 154.81L276.309 156.445L281.705 161.903L281.694 164.234L279.366 164.223L273.971 158.765L272.322 160.413L276.074 164.207L271.222 164.184L271.211 166.515Z" fill="#56CCF2"/>
<path d="M283.831 113.402L290.812 113.435L290.846 106.442L293.173 106.453L293.14 113.447L300.121 113.48L300.11 115.811L293.128 115.778L293.095 122.771L290.768 122.76L290.801 115.766L283.82 115.733L283.831 113.402Z" fill="#F2994A"/>
<path d="M218.866 244.032L220.732 245.919L228.201 238.509L235.598 245.991L237.482 244.122L230.085 236.64L237.554 229.229L235.688 227.342L228.219 234.752L220.821 227.27L218.937 229.139L226.335 236.622L218.866 244.032Z" fill="#2F80ED"/>
<ellipse cx="155.891" cy="123.071" rx="110.924" ry="111.118" fill="#CED4D9"/>
<path d="M89.9062 55.5V190.5H208.031V55.5H89.9062Z" fill="#ECEFF1"/>
<path d="M102.562 177.141V179.953C102.562 181.078 101.578 182.062 100.453 182.062H96.2344C95.1094 182.062 94.125 181.078 94.125 179.953V177.141C94.125 176.016 95.1094 175.031 96.2344 175.031H100.453C101.578 175.031 102.562 176.016 102.562 177.141ZM102.562 149.016V151.828C102.562 152.953 101.578 153.938 100.453 153.938H96.2344C95.1094 153.938 94.125 152.953 94.125 151.828V149.016C94.125 147.891 95.1094 146.906 96.2344 146.906H100.453C101.578 146.906 102.562 147.891 102.562 149.016ZM100.453 118.781H96.2344C95.1094 118.781 94.125 119.766 94.125 120.891V123.703C94.125 124.828 95.1094 125.812 96.2344 125.812H100.453C101.578 125.812 102.562 124.828 102.562 123.703V120.891C102.562 119.766 101.578 118.781 100.453 118.781ZM100.453 92.0625H96.2344C95.1094 92.0625 94.125 93.0469 94.125 94.1719V96.9844C94.125 98.1094 95.1094 99.0938 96.2344 99.0938H100.453C101.578 99.0938 102.562 98.1094 102.562 96.9844V94.1719C102.562 93.0469 101.578 92.0625 100.453 92.0625ZM100.453 63.9375H96.2344C95.1094 63.9375 94.125 64.9219 94.125 66.0469V68.8594C94.125 69.9844 95.1094 70.9688 96.2344 70.9688H100.453C101.578 70.9688 102.562 69.9844 102.562 68.8594V66.0469C102.562 64.9219 101.578 63.9375 100.453 63.9375Z" fill="#3E2723"/>
<path d="M99.75 152.531C99.75 153.375 99.1875 153.938 98.3438 153.938H81.4688C80.625 153.938 80.0625 153.375 80.0625 152.531C80.0625 151.687 80.625 151.125 81.4688 151.125H98.3438C99.1875 151.125 99.75 151.687 99.75 152.531Z" fill="#90A4AE"/>
<path d="M99.75 148.312C99.75 149.156 99.1875 149.719 98.3438 149.719H81.4688C80.625 149.719 80.0625 149.156 80.0625 148.312C80.0625 147.469 80.625 146.906 81.4688 146.906H98.3438C99.1875 146.906 99.75 147.469 99.75 148.312Z" fill="#90A4AE"/>
<path d="M99.75 97.6875C99.75 98.5312 99.1875 99.0938 98.3438 99.0938H81.4688C80.625 99.0938 80.0625 98.5312 80.0625 97.6875C80.0625 96.8437 80.625 96.2812 81.4688 96.2812H98.3438C99.1875 96.2812 99.75 96.8437 99.75 97.6875Z" fill="#90A4AE"/>
<path d="M99.75 93.4688C99.75 94.3125 99.1875 94.875 98.3438 94.875H81.4688C80.625 94.875 80.0625 94.3125 80.0625 93.4688C80.0625 92.625 80.625 92.0625 81.4688 92.0625H98.3438C99.1875 92.0625 99.75 92.625 99.75 93.4688Z" fill="#90A4AE"/>
<path d="M99.75 124.406C99.75 125.25 99.1875 125.812 98.3438 125.812H81.4688C80.625 125.812 80.0625 125.25 80.0625 124.406C80.0625 123.562 80.625 123 81.4688 123H98.3438C99.1875 123 99.75 123.562 99.75 124.406Z" fill="#90A4AE"/>
<path d="M99.75 120.188C99.75 121.031 99.1875 121.594 98.3438 121.594H81.4688C80.625 121.594 80.0625 121.031 80.0625 120.188C80.0625 119.344 80.625 118.781 81.4688 118.781H98.3438C99.1875 118.781 99.75 119.344 99.75 120.188Z" fill="#90A4AE"/>
<path d="M99.75 69.5625C99.75 70.4062 99.1875 70.9688 98.3438 70.9688H81.4688C80.625 70.9688 80.0625 70.4062 80.0625 69.5625C80.0625 68.7187 80.625 68.1562 81.4688 68.1562H98.3438C99.1875 68.1562 99.75 68.7187 99.75 69.5625Z" fill="#90A4AE"/>
<path d="M99.75 65.3438C99.75 66.1875 99.1875 66.75 98.3438 66.75H81.4688C80.625 66.75 80.0625 66.1875 80.0625 65.3438C80.0625 64.5 80.625 63.9375 81.4688 63.9375H98.3438C99.1875 63.9375 99.75 64.5 99.75 65.3438Z" fill="#90A4AE"/>
<path d="M99.75 180.656C99.75 181.5 99.1875 182.062 98.3438 182.062H81.4688C80.625 182.062 80.0625 181.5 80.0625 180.656C80.0625 179.812 80.625 179.25 81.4688 179.25H98.3438C99.1875 179.25 99.75 179.812 99.75 180.656Z" fill="#90A4AE"/>
<path d="M99.75 176.438C99.75 177.281 99.1875 177.844 98.3438 177.844H81.4688C80.625 177.844 80.0625 177.281 80.0625 176.438C80.0625 175.594 80.625 175.031 81.4688 175.031H98.3438C99.1875 175.031 99.75 175.594 99.75 176.438Z" fill="#90A4AE"/>
<path d="M161.625 201.049L162.891 190.08L169.078 192.752L161.625 201.049Z" fill="#2962FF"/>
<path d="M166.687 155.205L162.891 190.08L164.859 193.877L169.078 192.752L192.422 166.596L190.875 160.549L172.312 152.252L166.687 155.205Z" fill="#FFCCBC"/>
<path d="M233.823 73.9351C235.09 71.0988 230.37 66.2307 223.279 63.062C216.188 59.8932 209.412 59.6238 208.145 62.4601C206.877 65.2964 211.598 70.1645 218.689 73.3332C225.78 76.5019 232.556 76.7714 233.823 73.9351Z" fill="#2196F3"/>
<path d="M192.422 166.596C192.422 166.596 191.297 163.08 187.922 162.377C186.094 161.955 180.75 164.486 177.656 163.08C174 161.393 175.406 156.471 173.719 154.924C171.328 152.814 166.828 155.064 166.828 155.064L208.312 62.252L234.047 73.7832L192.422 166.596Z" fill="#2962FF"/>
<path d="M201.961 76.4315L200.24 80.2832L225.918 91.7582L227.639 87.9065L201.961 76.4315Z" fill="#FFD600"/>
<path d="M135.891 189.516L137.156 178.547L143.344 181.359L135.891 189.516Z" fill="#D50000"/>
<path d="M141.094 143.674L137.156 178.549L139.125 182.346L143.344 181.361L166.688 155.205L165.141 149.158L146.578 140.861L141.094 143.674Z" fill="#FFECB3"/>
<path d="M208.128 62.3609C209.396 59.5245 204.675 54.6565 197.584 51.4877C190.494 48.319 183.718 48.0495 182.45 50.8859C181.183 53.7222 185.904 58.5902 192.994 61.759C200.085 64.9277 206.861 65.1972 208.128 62.3609Z" fill="#F44336"/>
<path d="M166.687 155.205C166.687 155.205 165.562 151.689 162.188 150.986C160.359 150.564 155.016 153.096 151.922 151.689C148.266 150.002 149.672 145.08 147.984 143.533C145.594 141.424 141.094 143.674 141.094 143.674L182.578 50.8613L208.312 62.3926L166.687 155.205Z" fill="#D50000"/>
<path d="M176.211 64.9881L174.49 68.8398L200.168 80.3148L201.889 76.4631L176.211 64.9881Z" fill="#FFD600"/>
<path d="M146.156 201.049L147.422 190.08L153.609 192.752L146.156 201.049Z" fill="#4CAF50"/>
<path d="M151.219 155.205L147.422 190.08L149.391 193.877L153.609 192.752L176.953 166.596L175.406 160.549L156.844 152.252L151.219 155.205Z" fill="#FFE0B2"/>
<path d="M218.354 73.9351C219.622 71.0988 214.901 66.2307 207.81 63.062C200.72 59.8932 193.944 59.6238 192.676 62.4601C191.409 65.2964 196.13 70.1645 203.22 73.3332C210.311 76.5019 217.087 76.7714 218.354 73.9351Z" fill="#66BB6A"/>
<path d="M176.953 166.596C176.953 166.596 175.828 163.08 172.453 162.377C170.625 161.955 165.281 164.486 162.188 163.08C158.531 161.393 159.937 156.471 158.25 154.924C155.859 152.814 151.359 155.064 151.359 155.064L192.844 62.252L218.578 73.7832L176.953 166.596Z" fill="#4CAF50"/>
<path d="M186.494 76.4334L184.773 80.2852L210.451 91.7602L212.172 87.9084L186.494 76.4334Z" fill="#FFD600"/>
</g>
<defs>
<filter id="filter0_d" x="0" y="0" width="310" height="254" filterUnits="userSpaceOnUse" color-interpolation-filters="sRGB">
<feFlood flood-opacity="0" result="BackgroundImageFix"/>
<feColorMatrix in="SourceAlpha" type="matrix" values="0 0 0 0 0 0 0 0 0 0 0 0 0 0 0 0 0 0 127 0"/>
<feOffset dy="4"/>
<feGaussianBlur stdDeviation="2"/>
<feColorMatrix type="matrix" values="0 0 0 0 0 0 0 0 0 0 0 0 0 0 0 0 0 0 0.25 0"/>
<feBlend mode="normal" in2="BackgroundImageFix" result="effect1_dropShadow"/>
<feBlend mode="normal" in="SourceGraphic" in2="effect1_dropShadow" result="shape"/>
</filter>
</defs>
</svg>
