<svg width="512" height="512" xmlns="http://www.w3.org/2000/svg">

 <g>
  <title>background</title>
  <rect fill="none" id="canvas_background" height="402" width="582" y="-1" x="-1"/>
 </g>
 <g>
  <title>Layer 1</title>
  <path fill="#3124e2" id="svg_2" d="m182.922,264.709c-39.745,0 -72.08,32.336 -72.08,72.08c0,39.745 32.335,72.079 72.08,72.079c39.744,0 72.08,-32.334 72.08,-72.079c0,-14.443 -4.259,-28.381 -12.314,-40.306c-2.095,-3.099 -6.305,-3.915 -9.406,-1.821c-3.1,2.096 -3.916,6.306 -1.821,9.406c6.538,9.677 9.993,20.99 9.993,32.721c0,32.274 -26.257,58.531 -58.531,58.531c-32.275,0 -58.531,-26.257 -58.531,-58.531s26.256,-58.531 58.531,-58.531c3.741,0 6.774,-3.033 6.774,-6.773c-0.001,-3.743 -3.034,-6.776 -6.775,-6.776z"/>
  <path fill="#126301" id="svg_3" d="m308.15,401.063l-17.715,-17.717c-1.592,-1.592 -2.026,-4.051 -1.151,-6.156c0.018,-0.039 0.101,-0.234 0.116,-0.273c0.914,-2.206 2.956,-3.632 5.203,-3.632l25.054,0c3.74,0 6.774,-3.033 6.774,-6.774l0,-67.184c0,-3.741 -3.034,-6.774 -6.774,-6.774l-25.054,0c-2.247,0 -4.289,-1.426 -5.273,-3.798c-0.921,-2.213 -0.486,-4.672 1.105,-6.266l17.715,-17.715c2.646,-2.645 2.646,-6.934 0,-9.58l-47.505,-47.505c-2.646,-2.645 -6.935,-2.645 -9.581,0c-2.646,2.646 -2.646,6.935 0,9.581l42.717,42.715l-12.925,12.924c-5.487,5.486 -7.071,13.748 -3.973,21.195c3.017,7.287 9.972,11.997 17.72,11.997l18.279,0l0,53.635l-18.279,0c-7.748,0 -14.703,4.71 -17.671,11.88c-0.015,0.035 -0.097,0.228 -0.111,0.264c-3.038,7.299 -1.454,15.563 4.035,21.047l12.925,12.926l-37.926,37.926l-12.925,-12.926c-5.488,-5.488 -13.751,-7.071 -21.194,-3.973c-7.288,3.018 -11.998,9.975 -11.998,17.721l0,18.279l-53.634,0l0,-18.28c0,-7.747 -4.709,-14.703 -12.144,-17.781c-7.299,-3.036 -15.56,-1.453 -21.048,4.033l-12.925,12.926l-37.925,-37.926l12.925,-12.926c5.486,-5.488 7.07,-13.75 3.973,-21.193c-3.019,-7.287 -9.975,-11.997 -17.72,-11.997l-18.278,0l0,-53.635l18.279,0c7.746,0 14.702,-4.71 17.781,-12.144c3.035,-7.299 1.452,-15.561 -4.034,-21.049l-12.925,-12.924l37.925,-37.925l12.925,12.924c5.486,5.488 13.747,7.072 21.194,3.974c7.288,-3.019 11.997,-9.975 11.997,-17.72l0,-18.279l53.634,0l0,18.279c0,7.747 4.71,14.703 11.998,17.72c2.442,1.012 4.884,2.138 7.255,3.346c3.33,1.697 7.411,0.373 9.111,-2.961c1.698,-3.333 0.373,-7.412 -2.961,-9.111c-2.686,-1.369 -5.452,-2.644 -8.222,-3.792c-2.207,-0.914 -3.633,-2.956 -3.633,-5.203l0,-25.054c0,-3.742 -3.033,-6.774 -6.774,-6.774l-67.182,0c-3.741,0 -6.774,3.032 -6.774,6.774l0,25.054c0,2.247 -1.426,4.289 -3.799,5.272c-2.211,0.922 -4.671,0.488 -6.263,-1.105l-17.715,-17.715c-2.646,-2.645 -6.936,-2.645 -9.581,0l-47.506,47.505c-2.646,2.646 -2.646,6.936 0,9.582l17.715,17.713c1.593,1.594 2.026,4.053 1.128,6.213c-0.009,0.021 -0.082,0.197 -0.092,0.218c-0.914,2.207 -2.956,3.633 -5.202,3.633l-25.053,0c-3.741,0 -6.774,3.033 -6.774,6.774l0,67.184c0,3.741 3.033,6.774 6.774,6.774l25.054,0c2.246,0 4.288,1.426 5.272,3.798c0.92,2.213 0.486,4.672 -1.106,6.264l-17.715,17.715c-2.646,2.646 -2.646,6.936 0,9.582l47.506,47.505c2.646,2.645 6.935,2.645 9.581,0l17.715,-17.716c1.592,-1.594 4.051,-2.023 6.211,-1.127c0.021,0.009 0.197,0.082 0.218,0.092c2.207,0.914 3.633,2.956 3.633,5.203l0,25.053c0,3.742 3.033,6.774 6.774,6.774l67.183,0c3.741,0 6.774,-3.032 6.774,-6.774l0,-25.053c0,-2.248 1.426,-4.29 3.557,-5.174c0.029,-0.012 0.215,-0.088 0.243,-0.1c2.212,-0.921 4.672,-0.485 6.263,1.105l17.715,17.715c1.271,1.271 2.994,1.984 4.791,1.984c1.796,0 3.519,-0.713 4.79,-1.983l47.505,-47.505c2.644,-2.646 2.644,-6.935 -0.002,-9.579z"/>
  <path fill="#00007f" id="svg_4" d="m377.926,312.506c0,24.05 19.566,43.617 43.618,43.617s43.618,-19.567 43.618,-43.617c0,-24.051 -19.566,-43.619 -43.618,-43.619s-43.618,19.568 -43.618,43.619zm73.687,0c0,16.58 -13.489,30.069 -30.069,30.069s-30.07,-13.489 -30.07,-30.069c0,-16.582 13.49,-30.07 30.07,-30.07s30.069,13.488 30.069,30.07z"/>
  <path fill="#00007f" id="svg_5" d="m465.813,443.785c3.74,0 6.774,-3.032 6.774,-6.773l0,-16.967c0,-28.145 -22.897,-51.042 -51.043,-51.042s-51.043,22.897 -51.043,51.042l0,43.62l-82.472,0c-3.74,0 -6.774,3.032 -6.774,6.774c0,3.741 3.034,6.773 6.774,6.773l88.918,0c0.111,0.006 0.216,0.033 0.328,0.033l88.537,0c3.74,0 6.774,-3.033 6.774,-6.773c0,-3.742 -3.034,-6.775 -6.774,-6.775l-81.762,0l0,-43.652c0,-20.674 16.82,-37.494 37.494,-37.494s37.494,16.82 37.494,37.494l0,16.967c0,3.741 3.034,6.773 6.775,6.773z"/>
  <path fill="#f9aa33" id="svg_6" d="m93.609,185.172c3.741,0 6.774,-3.033 6.774,-6.774l0,-113.908l44.934,0c3.741,0 6.774,-3.032 6.774,-6.774c0,-3.741 -3.033,-6.774 -6.774,-6.774l-51.708,0c-3.741,0 -6.774,3.033 -6.774,6.774l0,120.682c0,3.742 3.033,6.774 6.774,6.774z"/>
  <path fill="#f9aa33" id="svg_7" d="m375.443,64.49l45.933,0l0,163.937c0,3.742 3.033,6.774 6.774,6.774c3.74,0 6.773,-3.033 6.773,-6.774l0,-170.711c0,-3.741 -3.033,-6.774 -6.773,-6.774l-52.707,0c-3.74,0 -6.773,3.033 -6.773,6.774c0,3.742 3.033,6.774 6.773,6.774z"/>
  <path fill="#f9aa33" id="svg_8" d="m185.378,93.665l151.005,0c3.74,0 6.773,-3.033 6.773,-6.774l0,-45.363c0,-3.741 -3.033,-6.774 -6.773,-6.774l-151.005,0c-3.741,0 -6.774,3.033 -6.774,6.774l0,45.363c0,3.741 3.033,6.774 6.774,6.774zm6.774,-45.363l137.456,0l0,31.814l-137.456,0l0,-31.814z"/>
  <path fill="#1d09f2" id="svg_9" d="m182.922,292.964c-3.742,0 -6.774,3.033 -6.774,6.774l0,37.051c0,3.741 3.032,6.773 6.774,6.773l24.714,0c3.741,0 6.774,-3.032 6.774,-6.773c0,-3.742 -3.033,-6.775 -6.774,-6.775l-17.939,0l0,-30.275c-0.001,-3.742 -3.034,-6.775 -6.775,-6.775z"/>
  <path fill="#f9aa33" id="svg_10" d="m168.652,146.977l152.94,0c3.74,0 6.773,-3.032 6.773,-6.774c0,-3.741 -3.033,-6.774 -6.773,-6.774l-152.94,0c-3.742,0 -6.774,3.033 -6.774,6.774c0,3.741 3.032,6.774 6.774,6.774z"/>
  <path fill="#f9aa33" id="svg_11" d="m321.593,188.101l-31.064,0c-3.74,0 -6.774,3.033 -6.774,6.774c0,3.741 3.034,6.774 6.774,6.774l31.064,0c3.74,0 6.773,-3.033 6.773,-6.774c0,-3.741 -3.033,-6.774 -6.773,-6.774z"/>
  <path fill="#28950f" id="svg_12" d="m362.332,154.588c1.323,1.322 3.057,1.983 4.789,1.983c1.734,0 3.469,-0.662 4.79,-1.984l19.19,-19.191c2.646,-2.645 2.646,-6.934 0,-9.58c-2.646,-2.644 -6.937,-2.645 -9.579,0.001l-14.401,14.401l-5.706,-5.705c-2.646,-2.645 -6.937,-2.646 -9.579,0.001c-2.646,2.645 -2.646,6.935 0,9.58l10.496,10.494z"/>
  <path fill="#28950f" id="svg_13" d="m362.332,209.261c1.323,1.322 3.057,1.984 4.789,1.984c1.734,0 3.469,-0.662 4.79,-1.985l19.19,-19.191c2.646,-2.645 2.646,-6.934 0,-9.58c-2.646,-2.644 -6.937,-2.645 -9.579,0.001l-14.401,14.401l-5.706,-5.705c-2.646,-2.645 -6.937,-2.646 -9.579,0c-2.646,2.645 -2.646,6.935 0,9.58l10.496,10.495z"/>
 </g>
</svg>