<svg width="180" height="174" viewBox="0 0 180 174" fill="none" xmlns="http://www.w3.org/2000/svg">
<path d="M81.8482 67.2167H112.883C113.61 67.2167 114.2 66.5536 114.2 65.7333C114.2 64.9131 113.61 64.25 112.883 64.25H81.8482C81.1214 64.25 80.5315 64.9131 80.5315 65.7333C80.5315 66.5536 81.1214 67.2167 81.8482 67.2167Z" fill="white"/>
<path d="M81.8482 89.4667H112.883C113.61 89.4667 114.2 88.8036 114.2 87.9833C114.2 87.1631 113.61 86.5 112.883 86.5H81.8482C81.1214 86.5 80.5315 87.1631 80.5315 87.9833C80.5315 88.8036 81.1214 89.4667 81.8482 89.4667Z" fill="white"/>
<path d="M81.8482 111.717H112.883C113.61 111.717 114.2 111.054 114.2 110.233C114.2 109.413 113.61 108.75 112.883 108.75H81.8482C81.1214 108.75 80.5315 109.413 80.5315 110.233C80.5315 111.054 81.1214 111.717 81.8482 111.717Z" fill="white"/>
<path d="M128.683 42H52.3167C51.5899 42 51 42.6631 51 43.4833V129.517C51 130.337 51.5899 131 52.3167 131H128.683C129.41 131 130 130.337 130 129.517V43.4833C130 42.6631 129.41 42 128.683 42ZM127.367 128.033H53.6333V44.9667H127.367V128.033Z" fill="white"/>
<path d="M67.4597 69.4031L70.6566 67.5089L73.8534 69.4031L73.2438 65.3922L75.8298 62.5501L72.255 61.9657L70.6566 58.3167L69.0581 61.9657L65.4834 62.5501L68.0706 65.3922L67.4597 69.4031Z" fill="white"/>
<path d="M67.4597 91.7762L70.6566 89.882L73.8534 91.7762L73.2438 87.7653L75.8298 84.9247L72.255 84.3388L70.6566 80.6898L69.0581 84.3388L65.4834 84.9247L68.0706 87.7653L67.4597 91.7762Z" fill="white"/>
<path d="M67.4597 114.683L70.6566 112.789L73.8534 114.683L73.2438 110.672L75.8298 107.832L72.255 107.246L70.6566 103.597L69.0581 107.246L65.4834 107.832L68.0706 110.672L67.4597 114.683Z" fill="white"/>
</svg>
