<svg width="24" height="31" viewBox="0 0 24 31" fill="none" xmlns="http://www.w3.org/2000/svg">
<g id="icon/action/lock_open_24px" filter="url(#filter0_d)">
<path id="icon/action/lock_open_24px_2" fill-rule="evenodd" clip-rule="evenodd" d="M18 8.5H17V6.5C17 3.74 14.76 1.5 12 1.5C9.24 1.5 7 3.74 7 6.5H9C9 4.84 10.34 3.5 12 3.5C13.66 3.5 15 4.84 15 6.5V8.5H6C4.9 8.5 4 9.4 4 10.5V20.5C4 21.6 4.9 22.5 6 22.5H18C19.1 22.5 20 21.6 20 20.5V10.5C20 9.4 19.1 8.5 18 8.5ZM6 20.5V10.5H18V20.5H6ZM14 15.5C14 16.6 13.1 17.5 12 17.5C10.9 17.5 10 16.6 10 15.5C10 14.4 10.9 13.5 12 13.5C13.1 13.5 14 14.4 14 15.5Z" fill="#FF0023"/>
</g>
<defs>
<filter id="filter0_d" x="-4" y="0" width="32" height="32" filterUnits="userSpaceOnUse" color-interpolation-filters="sRGB">
<feFlood flood-opacity="0" result="BackgroundImageFix"/>
<feColorMatrix in="SourceAlpha" type="matrix" values="0 0 0 0 0 0 0 0 0 0 0 0 0 0 0 0 0 0 127 0"/>
<feOffset dy="4"/>
<feGaussianBlur stdDeviation="2"/>
<feColorMatrix type="matrix" values="0 0 0 0 0 0 0 0 0 0 0 0 0 0 0 0 0 0 0.25 0"/>
<feBlend mode="normal" in2="BackgroundImageFix" result="effect1_dropShadow"/>
<feBlend mode="normal" in="SourceGraphic" in2="effect1_dropShadow" result="shape"/>
</filter>
</defs>
</svg>
