<svg width="12" height="12" viewBox="0 0 12 12" fill="none" xmlns="http://www.w3.org/2000/svg">
<g id="icon/action/settings_24px">
<path id="icon/action/settings_24px_2" fill-rule="evenodd" clip-rule="evenodd" d="M9.75111 6C9.75111 6.17 9.73611 6.33 9.71611 6.49L10.7711 7.315C10.8661 7.39 10.8911 7.525 10.8311 7.635L9.83111 9.365C9.78611 9.445 9.70111 9.49 9.61611 9.49C9.58611 9.49 9.55611 9.485 9.52611 9.475L8.28111 8.975C8.02111 9.17 7.74111 9.34 7.43611 9.465L7.24611 10.79C7.23111 10.91 7.12611 11 7.00111 11H5.00111C4.87611 11 4.77111 10.91 4.75611 10.79L4.56611 9.465C4.26111 9.34 3.98111 9.175 3.72111 8.975L2.47611 9.475C2.45111 9.485 2.42111 9.49 2.39111 9.49C2.30111 9.49 2.21611 9.445 2.17111 9.365L1.17111 7.635C1.11111 7.525 1.13611 7.39 1.23111 7.315L2.28611 6.49C2.26611 6.33 2.25111 6.165 2.25111 6C2.25111 5.835 2.26611 5.67 2.28611 5.51L1.23111 4.685C1.13611 4.61 1.10611 4.475 1.17111 4.365L2.17111 2.635C2.21611 2.555 2.30111 2.51 2.38611 2.51C2.41611 2.51 2.44611 2.515 2.47611 2.525L3.72111 3.025C3.98111 2.83 4.26111 2.66 4.56611 2.535L4.75611 1.21C4.77111 1.09 4.87611 1 5.00111 1H7.00111C7.12611 1 7.23111 1.09 7.24611 1.21L7.43611 2.535C7.74111 2.66 8.02111 2.825 8.28111 3.025L9.52611 2.525C9.55111 2.515 9.58111 2.51 9.61111 2.51C9.70111 2.51 9.78611 2.555 9.83111 2.635L10.8311 4.365C10.8911 4.475 10.8661 4.61 10.7711 4.685L9.71611 5.51C9.73611 5.67 9.75111 5.83 9.75111 6ZM8.75111 6C8.75111 5.895 8.74611 5.79 8.72611 5.635L8.65611 5.07L9.10111 4.72L9.63611 4.295L9.28611 3.69L8.65111 3.945L8.12111 4.16L7.66611 3.81C7.46611 3.66 7.26611 3.545 7.05111 3.455L6.52111 3.24L6.44111 2.675L6.34611 2H5.65111L5.55111 2.675L5.47111 3.24L4.94111 3.455C4.73611 3.54 4.53111 3.66 4.31611 3.82L3.86611 4.16L3.34611 3.95L2.71111 3.695L2.36111 4.3L2.90111 4.72L3.34611 5.07L3.27611 5.635C3.26111 5.785 3.25111 5.9 3.25111 6C3.25111 6.1 3.26111 6.215 3.27611 6.37L3.34611 6.935L2.90111 7.285L2.36111 7.705L2.71111 8.31L3.34611 8.055L3.87611 7.84L4.33111 8.19C4.53111 8.34 4.73111 8.455 4.94611 8.545L5.47611 8.76L5.55611 9.325L5.65111 10H6.35111L6.45111 9.325L6.53111 8.76L7.06111 8.545C7.26611 8.46 7.47111 8.34 7.68611 8.18L8.13611 7.84L8.65611 8.05L9.29111 8.305L9.64111 7.7L9.10111 7.28L8.65611 6.93L8.72611 6.365C8.74111 6.215 8.75111 6.105 8.75111 6ZM6.0011 4C4.8961 4 4.0011 4.895 4.0011 6C4.0011 7.105 4.8961 8 6.0011 8C7.1061 8 8.0011 7.105 8.0011 6C8.0011 4.895 7.1061 4 6.0011 4ZM5.0011 6C5.0011 6.55 5.4511 7 6.0011 7C6.55111 7 7.00111 6.55 7.00111 6C7.00111 5.45 6.55111 5 6.0011 5C5.4511 5 5.0011 5.45 5.0011 6Z" fill="#BFBFBF"/>
</g>
</svg>
