<svg width="78" height="65" viewBox="0 0 78 65" fill="none" xmlns="http://www.w3.org/2000/svg">
<path fill-rule="evenodd" clip-rule="evenodd" d="M21.75 15.625V19.375H56.25V15.625H21.75ZM25.5833 27.8125C27.1742 27.8125 28.4583 26.5563 28.4583 25C28.4583 23.4438 27.1742 22.1875 25.5833 22.1875C23.9925 22.1875 22.7083 23.4438 22.7083 25C22.7083 26.5563 23.9925 27.8125 25.5833 27.8125ZM33.25 26.875C34.3042 26.875 35.1667 26.0312 35.1667 25C35.1667 23.9687 34.3042 23.125 33.25 23.125C32.1958 23.125 31.3333 23.9687 31.3333 25C31.3333 26.0312 32.1958 26.875 33.25 26.875ZM35.1667 32.5C35.1667 33.5313 34.3042 34.375 33.25 34.375C32.1958 34.375 31.3333 33.5313 31.3333 32.5C31.3333 31.4688 32.1958 30.625 33.25 30.625C34.3042 30.625 35.1667 31.4688 35.1667 32.5ZM28.4583 40C28.4583 41.5562 27.1742 42.8125 25.5833 42.8125C23.9925 42.8125 22.7083 41.5562 22.7083 40C22.7083 38.4438 23.9925 37.1875 25.5833 37.1875C27.1742 37.1875 28.4583 38.4438 28.4583 40ZM56.25 45.625V49.375H21.75V45.625H56.25ZM28.4583 32.5C28.4583 34.0562 27.1742 35.3125 25.5833 35.3125C23.9925 35.3125 22.7083 34.0562 22.7083 32.5C22.7083 30.9438 23.9925 29.6875 25.5833 29.6875C27.1742 29.6875 28.4583 30.9438 28.4583 32.5ZM33.25 41.875C34.3042 41.875 35.1667 41.0312 35.1667 40C35.1667 38.9688 34.3042 38.125 33.25 38.125C32.1958 38.125 31.3333 38.9688 31.3333 40C31.3333 41.0312 32.1958 41.875 33.25 41.875ZM49.5417 40C49.5417 40.525 49.12 40.9375 48.5833 40.9375C48.0467 40.9375 47.625 40.525 47.625 40C47.625 39.475 48.0467 39.0625 48.5833 39.0625C49.12 39.0625 49.5417 39.475 49.5417 40ZM49.5417 25C49.5417 25.525 49.12 25.9375 48.5833 25.9375C48.0467 25.9375 47.625 25.525 47.625 25C47.625 24.475 48.0467 24.0625 48.5833 24.0625C49.12 24.0625 49.5417 24.475 49.5417 25ZM48.5833 33.4375C49.12 33.4375 49.5417 33.025 49.5417 32.5C49.5417 31.975 49.12 31.5625 48.5833 31.5625C48.0467 31.5625 47.625 31.975 47.625 32.5C47.625 33.025 48.0467 33.4375 48.5833 33.4375ZM42.8333 25C42.8333 26.0312 41.9708 26.875 40.9167 26.875C39.8625 26.875 39 26.0312 39 25C39 23.9687 39.8625 23.125 40.9167 23.125C41.9708 23.125 42.8333 23.9687 42.8333 25ZM40.9167 34.375C41.9708 34.375 42.8333 33.5313 42.8333 32.5C42.8333 31.4688 41.9708 30.625 40.9167 30.625C39.8625 30.625 39 31.4688 39 32.5C39 33.5313 39.8625 34.375 40.9167 34.375ZM42.8333 40C42.8333 41.0312 41.9708 41.875 40.9167 41.875C39.8625 41.875 39 41.0312 39 40C39 38.9688 39.8625 38.125 40.9167 38.125C41.9708 38.125 42.8333 38.9688 42.8333 40Z" fill="white"/>
</svg>
